<?xml version="1.0" encoding="UTF-8" standalone="no"?>
<svg
   xmlns:dc="http://purl.org/dc/elements/1.1/"
   xmlns:cc="http://creativecommons.org/ns#"
   xmlns:rdf="http://www.w3.org/1999/02/22-rdf-syntax-ns#"
   xmlns:svg="http://www.w3.org/2000/svg"
   xmlns="http://www.w3.org/2000/svg"
   xmlns:xlink="http://www.w3.org/1999/xlink"
   xmlns:sodipodi="http://sodipodi.sourceforge.net/DTD/sodipodi-0.dtd"
   xmlns:inkscape="http://www.inkscape.org/namespaces/inkscape"
   width="767"
   height="575"
   viewBox="0 0 767 575"
   id="svg2"
   version="1.1"
   inkscape:version="0.48.2 r9819"
   sodipodi:docname="sinusoid_Q10000_1.svg">
  <metadata
     id="metadata170">
    <rdf:RDF>
      <cc:Work
         rdf:about="">
        <dc:format>image/svg+xml</dc:format>
        <dc:type
           rdf:resource="http://purl.org/dc/dcmitype/StillImage" />
        <dc:title></dc:title>
      </cc:Work>
    </rdf:RDF>
  </metadata>
  <sodipodi:namedview
     pagecolor="#ffffff"
     bordercolor="#666666"
     borderopacity="1"
     objecttolerance="10"
     gridtolerance="10"
     guidetolerance="10"
     inkscape:pageopacity="0"
     inkscape:pageshadow="2"
     inkscape:window-width="1280"
     inkscape:window-height="960"
     id="namedview168"
     showgrid="false"
     inkscape:zoom="1.1608849"
     inkscape:cx="366.70203"
     inkscape:cy="287.5"
     inkscape:window-x="-4"
     inkscape:window-y="-4"
     inkscape:window-maximized="1"
     inkscape:current-layer="svg2" />
  <desc
     id="desc4">Produced by GNUPLOT 4.4 patchlevel 3 </desc>
  <defs
     id="defs6">
    <circle
       id="gpDot"
       r="0.5"
       stroke-width="0.5" />
    <path
       id="gpPt0"
       stroke-width="0.222"
       stroke="currentColor"
       d="M-1,0 h2 M0,-1 v2" />
    <path
       id="gpPt1"
       stroke-width="0.222"
       stroke="currentColor"
       d="M-1,-1 L1,1 M1,-1 L-1,1" />
    <path
       id="gpPt2"
       stroke-width="0.222"
       stroke="currentColor"
       d="M-1,0 L1,0 M0,-1 L0,1 M-1,-1 L1,1 M-1,1 L1,-1" />
    <rect
       id="gpPt3"
       stroke-width="0.222"
       stroke="currentColor"
       x="-1"
       y="-1"
       width="2"
       height="2" />
    <rect
       id="gpPt4"
       stroke-width="0.222"
       stroke="currentColor"
       fill="currentColor"
       x="-1"
       y="-1"
       width="2"
       height="2" />
    <circle
       id="gpPt5"
       stroke-width="0.222"
       stroke="currentColor"
       cx="0"
       cy="0"
       r="1" />
    <use
       xlink:href="#gpPt5"
       id="gpPt6"
       fill="currentColor"
       stroke="none" />
    <path
       id="gpPt7"
       stroke-width="0.222"
       stroke="currentColor"
       d="M0,-1.33 L-1.33,0.67 L1.33,0.67 z" />
    <use
       xlink:href="#gpPt7"
       id="gpPt8"
       fill="currentColor"
       stroke="none" />
    <use
       xlink:href="#gpPt7"
       id="gpPt9"
       stroke="currentColor"
       transform="rotate(180)" />
    <use
       xlink:href="#gpPt9"
       id="gpPt10"
       fill="currentColor"
       stroke="none" />
    <use
       xlink:href="#gpPt3"
       id="gpPt11"
       stroke="currentColor"
       transform="rotate(45)" />
    <use
       xlink:href="#gpPt11"
       id="gpPt12"
       fill="currentColor"
       stroke="none" />
  </defs>
  <g
     style="fill:none; color:white; stroke:currentColor; stroke-width:1.00; stroke-linecap:butt; stroke-linejoin:miter"
     id="g22" />
  <g
     style="fill:none; color:white; stroke:currentColor; stroke-width:0.50; stroke-linecap:butt; stroke-linejoin:miter"
     id="g24" />
  <path
     style="color:#000000;fill:none;stroke:currentColor;stroke-width:0.5;stroke-linecap:butt;stroke-linejoin:miter"
     inkscape:connector-curvature="0"
     id="path28"
     d="m 99.7,464.9 12.5,0 m 581.8,0 -12.5,0" />
  <path
     style="color:#000000;fill:none;stroke:currentColor;stroke-width:0.5;stroke-linecap:butt;stroke-linejoin:miter"
     inkscape:connector-curvature="0"
     id="path36"
     d="m 99.7,371.2 12.5,0 m 581.8,0 -12.5,0" />
  <path
     style="color:#000000;fill:none;stroke:currentColor;stroke-width:0.5;stroke-linecap:butt;stroke-linejoin:miter"
     inkscape:connector-curvature="0"
     id="path44"
     d="m 99.7,277.5 12.5,0 m 581.8,0 -12.5,0" />
  <path
     style="color:#000000;fill:none;stroke:currentColor;stroke-width:0.5;stroke-linecap:butt;stroke-linejoin:miter"
     inkscape:connector-curvature="0"
     id="path52"
     d="m 99.7,183.8 12.5,0 m 581.8,0 -12.5,0" />
  <path
     style="color:#000000;fill:none;stroke:currentColor;stroke-width:0.5;stroke-linecap:butt;stroke-linejoin:miter"
     inkscape:connector-curvature="0"
     id="path60"
     d="m 99.7,90.1 12.5,0 m 581.8,0 -12.5,0" />
  <path
     style="color:#000000;fill:none;stroke:currentColor;stroke-width:0.5;stroke-linecap:butt;stroke-linejoin:miter"
     inkscape:connector-curvature="0"
     id="path68"
     d="m 99.7,511.8 0,-12.5 m 0,-456 0,12.5" />
  <path
     style="color:#000000;fill:none;stroke:currentColor;stroke-width:0.5;stroke-linecap:butt;stroke-linejoin:miter"
     inkscape:connector-curvature="0"
     id="path76"
     d="m 174,511.8 0,-12.5 m 0,-456 0,12.5" />
  <path
     style="color:#000000;fill:none;stroke:currentColor;stroke-width:0.5;stroke-linecap:butt;stroke-linejoin:miter"
     inkscape:connector-curvature="0"
     id="path84"
     d="m 248.3,511.8 0,-12.5 m 0,-456 0,12.5" />
  <path
     style="color:#000000;fill:none;stroke:currentColor;stroke-width:0.5;stroke-linecap:butt;stroke-linejoin:miter"
     inkscape:connector-curvature="0"
     id="path92"
     d="m 322.6,511.8 0,-12.5 m 0,-456 0,12.5" />
  <path
     style="color:#000000;fill:none;stroke:currentColor;stroke-width:0.5;stroke-linecap:butt;stroke-linejoin:miter"
     inkscape:connector-curvature="0"
     id="path100"
     d="m 396.8,511.8 0,-12.5 m 0,-456 0,12.5" />
  <path
     style="color:#000000;fill:none;stroke:currentColor;stroke-width:0.5;stroke-linecap:butt;stroke-linejoin:miter"
     inkscape:connector-curvature="0"
     id="path108"
     d="m 471.1,511.8 0,-12.5 m 0,-456 0,12.5" />
  <path
     style="color:#000000;fill:none;stroke:currentColor;stroke-width:0.5;stroke-linecap:butt;stroke-linejoin:miter"
     inkscape:connector-curvature="0"
     id="path116"
     d="m 545.4,511.8 0,-12.5 m 0,-456 0,12.5" />
  <path
     style="color:#000000;fill:none;stroke:currentColor;stroke-width:0.5;stroke-linecap:butt;stroke-linejoin:miter"
     inkscape:connector-curvature="0"
     id="path124"
     d="m 619.7,511.8 0,-12.5 m 0,-456 0,12.5" />
  <path
     style="color:#000000;fill:none;stroke:currentColor;stroke-width:0.5;stroke-linecap:butt;stroke-linejoin:miter"
     inkscape:connector-curvature="0"
     id="path132"
     d="m 694,511.8 0,-12.5 m 0,-456 0,12.5" />
  <path
     style="color:#000000;fill:none;stroke:currentColor;stroke-width:0.5;stroke-linecap:butt;stroke-linejoin:miter"
     inkscape:connector-curvature="0"
     id="path140"
     d="m 99.7,43.3 0,468.5 594.3,0 0,-468.5 -594.3,0 z" />
  <a
     xlink:title="Plot #1"
     id="a148">
    <g
       style="fill:none; color:white; stroke:currentColor; stroke-width:2.00; stroke-linecap:butt; stroke-linejoin:miter"
       id="g150" />
    <g
       style="fill:none; color:red; stroke:currentColor; stroke-width:2.00; stroke-linecap:butt; stroke-linejoin:miter"
       id="g152">
      <path
         stroke="rgb(  0,   0,   0)"
         d="M99.7,277.5 L99.8,277.5 L99.9,277.5 L100.1,277.5 L100.2,277.5 L100.3,277.5 L100.4,277.5 L100.5,277.5    L100.7,277.5 L100.8,277.5 L100.9,277.5 L101.0,277.5 L101.1,277.5 L101.2,277.5 L101.4,277.5 L101.5,277.5    L101.6,277.5 L101.7,277.5 L101.8,277.5 L102.0,277.5 L102.1,277.5 L102.2,277.5 L102.3,277.5 L102.4,277.5    L102.6,277.5 L102.7,277.5 L102.8,277.5 L102.9,277.5 L103.0,277.5 L103.1,277.5 L103.3,277.5 L103.4,277.5    L103.5,277.5 L103.6,277.5 L103.7,277.5 L103.9,277.5 L104.0,277.5 L104.1,277.5 L104.2,277.5 L104.3,277.5    L104.5,277.5 L104.6,277.5 L104.7,277.5 L104.8,277.5 L104.9,277.5 L105.0,277.5 L105.2,277.5 L105.3,277.5    L105.4,277.5 L105.5,277.5 L105.6,277.5 L105.8,277.5 L105.9,277.5 L106.0,277.5 L106.1,277.5 L106.2,277.5    L106.4,277.5 L106.5,277.5 L106.6,277.5 L106.7,277.5 L106.8,277.5 L107.0,277.5 L107.1,277.5 L107.2,277.5    L107.3,277.5 L107.4,277.5 L107.5,277.5 L107.7,277.5 L107.8,277.5 L107.9,277.5 L108.0,277.5 L108.1,277.5    L108.3,277.5 L108.4,277.5 L108.5,277.5 L108.6,277.5 L108.7,277.5 L108.9,277.5 L109.0,277.5 L109.1,277.5    L109.2,277.5 L109.3,277.5 L109.4,277.5 L109.6,277.5 L109.7,277.5 L109.8,277.5 L109.9,277.5 L110.0,277.5    L110.2,277.5 L110.3,277.5 L110.4,277.5 L110.5,277.5 L110.6,277.5 L110.8,277.5 L110.9,277.5 L111.0,277.5    L111.1,277.5 L111.2,277.5 L111.4,277.5 L111.5,277.5 L111.6,277.5 L111.7,277.5 L111.8,277.5 L111.9,277.5    L112.1,277.5 L112.2,277.5 L112.3,277.5 L112.4,277.5 L112.5,277.5 L112.7,277.5 L112.8,277.5 L112.9,277.5    L113.0,277.5 L113.1,277.5 L113.3,277.5 L113.4,277.5 L113.5,277.5 L113.6,277.5 L113.7,277.5 L113.8,277.5    L114.0,277.5 L114.1,277.5 L114.2,277.5 L114.3,277.5 L114.4,277.5 L114.6,277.5 L114.7,277.5 L114.8,277.5    L114.9,277.5 L115.0,277.5 L115.2,277.5 L115.3,277.5 L115.4,277.5 L115.5,277.5 L115.6,277.5 L115.7,277.5    L115.9,277.5 L116.0,277.5 L116.1,277.5 L116.2,277.5 L116.3,277.5 L116.5,277.5 L116.6,277.5 L116.7,277.5    L116.8,277.5 L116.9,277.5 L117.1,277.5 L117.2,277.5 L117.3,277.5 L117.4,277.5 L117.5,277.5 L117.7,277.5    L117.8,277.5 L117.9,277.5 L118.0,277.5 L118.1,277.5 L118.2,277.5 L118.4,277.5 L118.5,277.5 L118.6,277.5    L118.7,277.5 L118.8,277.5 L119.0,277.5 L119.1,277.5 L119.2,277.5 L119.3,277.5 L119.4,277.5 L119.6,277.5    L119.7,277.5 L119.8,277.5 L119.9,277.5 L120.0,277.5 L120.1,277.5 L120.3,277.5 L120.4,277.5 L120.5,277.5    L120.6,277.5 L120.7,277.5 L120.9,277.5 L121.0,277.5 L121.1,277.5 L121.2,277.5 L121.3,277.5 L121.5,277.5    L121.6,277.5 L121.7,277.5 L121.8,277.5 L121.9,277.5 L122.1,277.5 L122.2,277.5 L122.3,277.5 L122.4,277.5    L122.5,277.5 L122.6,277.5 L122.8,277.5 L122.9,277.5 L123.0,277.5 L123.1,277.5 L123.2,277.5 L123.4,277.5    L123.5,277.5 L123.6,277.5 L123.7,277.5 L123.8,277.5 L124.0,277.5 L124.1,277.5 L124.2,277.5 L124.3,277.5    L124.4,277.5 L124.5,277.5 L124.7,277.5 L124.8,277.5 L124.9,277.5 L125.0,277.5 L125.1,277.5 L125.3,277.5    L125.4,277.5 L125.5,277.5 L125.6,277.5 L125.7,277.5 L125.9,277.5 L126.0,277.5 L126.1,277.5 L126.2,277.5    L126.3,277.5 L126.4,277.5 L126.6,277.5 L126.7,277.5 L126.8,277.5 L126.9,277.5 L127.0,277.5 L127.2,277.5    L127.3,277.5 L127.4,277.5 L127.5,277.5 L127.6,277.5 L127.8,277.5 L127.9,277.5 L128.0,277.5 L128.1,277.5    L128.2,277.5 L128.4,277.5 L128.5,277.5 L128.6,277.5 L128.7,277.5 L128.8,277.5 L128.9,277.5 L129.1,277.5    L129.2,277.5 L129.3,277.5 L129.4,277.5 L129.5,277.5 L129.7,277.5 L129.8,277.5 L129.9,277.5 L130.0,277.5    L130.1,277.5 L130.3,277.5 L130.4,277.5 L130.5,277.5 L130.6,277.5 L130.7,277.5 L130.8,277.5 L131.0,277.5    L131.1,277.5 L131.2,277.5 L131.3,277.5 L131.4,277.5 L131.6,277.5 L131.7,277.5 L131.8,277.5 L131.9,277.5    L132.0,277.5 L132.2,277.5 L132.3,277.5 L132.4,277.5 L132.5,277.5 L132.6,277.5 L132.7,277.5 L132.9,277.5    L133.0,277.5 L133.1,277.5 L133.2,277.5 L133.3,277.5 L133.5,277.5 L133.6,277.5 L133.7,277.5 L133.8,277.5    L133.9,277.5 L134.1,277.5 L134.2,277.5 L134.3,277.5 L134.4,277.5 L134.5,277.5 L134.7,277.5 L134.8,277.5    L134.9,277.5 L135.0,277.5 L135.1,277.5 L135.2,277.5 L135.4,277.5 L135.5,277.5 L135.6,277.5 L135.7,277.5    L135.8,277.5 L136.0,277.5 L136.1,277.5 L136.2,277.5 L136.3,277.5 L136.4,277.5 L136.6,277.5 L136.7,277.5    L136.8,277.5 L136.9,277.5 L137.0,277.5 L137.1,277.5 L137.3,277.5 L137.4,277.5 L137.5,277.5 L137.6,277.5    L137.7,277.5 L137.9,277.5 L138.0,277.5 L138.1,277.5 L138.2,277.5 L138.3,277.5 L138.5,277.5 L138.6,277.5    L138.7,277.5 L138.8,277.5 L138.9,277.5 L139.1,277.5 L139.2,277.5 L139.3,277.5 L139.4,277.5 L139.5,277.5    L139.6,277.5 L139.8,277.5 L139.9,277.5 L140.0,277.5 L140.1,277.5 L140.2,277.5 L140.4,277.5 L140.5,277.5    L140.6,277.5 L140.7,277.5 L140.8,277.5 L141.0,277.5 L141.1,277.5 L141.2,277.5 L141.3,277.5 L141.4,277.5    L141.5,277.5 L141.7,277.5 L141.8,277.5 L141.9,277.5 L142.0,277.5 L142.1,277.5 L142.3,277.5 L142.4,277.5    L142.5,277.5 L142.6,277.5 L142.7,277.5 L142.9,277.5 L143.0,277.5 L143.1,277.5 L143.2,277.5 L143.3,277.5    L143.4,277.5 L143.6,277.5 L143.7,277.5 L143.8,277.5 L143.9,277.5 L144.0,277.5 L144.2,277.5 L144.3,277.5    L144.4,277.5 L144.5,277.5 L144.6,277.5 L144.8,277.5 L144.9,277.5 L145.0,277.5 L145.1,277.5 L145.2,277.5    L145.4,277.5 L145.5,277.5 L145.6,277.5 L145.7,277.5 L145.8,277.5 L145.9,277.5 L146.1,277.5 L146.2,277.5    L146.3,277.5 L146.4,277.5 L146.5,277.5 L146.7,277.5 L146.8,277.5 L146.9,277.5 L147.0,277.5 L147.1,277.5    L147.3,277.5 L147.4,277.5 L147.5,277.5 L147.6,277.5 L147.7,277.5 L147.8,277.5 L148.0,277.5 L148.1,277.5    L148.2,277.5 L148.3,277.5 L148.4,277.5 L148.6,277.5 L148.7,277.5 L148.8,277.5 L148.9,277.5 L149.0,277.5    L149.2,277.5 L149.3,277.5 L149.4,277.5 L149.5,277.5 L149.6,277.5 L149.8,277.5 L149.9,277.5 L150.0,277.5    L150.1,277.5 L150.2,277.5 L150.3,277.5 L150.5,277.5 L150.6,277.5 L150.7,277.5 L150.8,277.5 L150.9,277.5    L151.1,277.5 L151.2,277.5 L151.3,277.5 L151.4,277.5 L151.5,277.5 L151.7,277.5 L151.8,277.5 L151.9,277.5    L152.0,277.5 L152.1,277.5 L152.2,277.5 L152.4,277.5 L152.5,277.5 L152.6,277.5 L152.7,277.5 L152.8,277.5    L153.0,277.5 L153.1,277.5 L153.2,277.5 L153.3,277.5 L153.4,277.5 L153.6,277.5 L153.7,277.5 L153.8,277.5    L153.9,277.5 L154.0,277.5 L154.1,277.5 L154.3,277.5 L154.4,277.5 L154.5,277.5 L154.6,277.5 L154.7,277.5    L154.9,277.5 L155.0,277.5 L155.1,277.5 L155.2,277.5 L155.3,277.5 L155.5,277.5 L155.6,277.5 L155.7,277.5    L155.8,277.5 L155.9,277.5 L156.1,277.5 L156.2,277.5 L156.3,277.5 L156.4,277.5 L156.5,277.5 L156.6,277.5    L156.8,277.5 L156.9,277.5 L157.0,277.5 L157.1,277.5 L157.2,277.5 L157.4,277.5 L157.5,277.5 L157.6,277.5    L157.7,277.5 L157.8,277.5 L158.0,277.5 L158.1,277.5 L158.2,277.5 L158.3,277.5 L158.4,277.5 L158.5,277.5    L158.7,277.5 L158.8,277.5 L158.9,277.5 L159.0,277.5 L159.1,277.5 L159.3,277.5 L159.4,277.5 L159.5,277.5    L159.6,277.5 L159.7,277.5 L159.9,277.5 L160.0,277.5 L160.1,277.5 L160.2,277.5 L160.3,277.5 L160.4,277.5    L160.6,277.5 L160.7,277.5 L160.8,277.5 L160.9,277.5 L161.0,277.5 L161.2,277.5 L161.3,277.5 L161.4,277.5    L161.5,277.5 L161.6,277.5 L161.8,277.5 L161.9,277.5 L162.0,277.5 L162.1,277.5 L162.2,277.5 L162.4,277.5    L162.5,277.5 L162.6,277.5 L162.7,277.5 L162.8,277.5 L162.9,277.5 L163.1,277.5 L163.2,277.5 L163.3,277.5    L163.4,277.5 L163.5,277.5 L163.7,277.5 L163.8,277.5 L163.9,277.5 L164.0,277.5 L164.1,277.5 L164.3,277.5    L164.4,277.5 L164.5,277.5 L164.6,277.5 L164.7,277.5 L164.8,277.5 L165.0,277.5 L165.1,277.5 L165.2,277.5    L165.3,277.5 L165.4,277.5 L165.6,277.5 L165.7,277.5 L165.8,277.5 L165.9,277.5 L166.0,277.5 L166.2,277.5    L166.3,277.5 L166.4,277.5 L166.5,277.5 L166.6,277.5 L166.8,277.5 L166.9,277.5 L167.0,277.5 L167.1,277.5    L167.2,277.5 L167.3,277.5 L167.5,277.5 L167.6,277.5 L167.7,277.5 L167.8,277.5 L167.9,277.5 L168.1,277.5    L168.2,277.5 L168.3,277.5 L168.4,277.5 L168.5,277.5 L168.7,277.5 L168.8,277.5 L168.9,277.5 L169.0,277.5    L169.1,277.5 L169.2,277.5 L169.4,277.5 L169.5,277.5 L169.6,277.5 L169.7,277.5 L169.8,277.5 L170.0,277.5    L170.1,277.5 L170.2,277.5 L170.3,277.5 L170.4,277.5 L170.6,277.5 L170.7,277.5 L170.8,277.5 L170.9,277.5    L171.0,277.5 L171.1,277.5 L171.3,277.5 L171.4,277.5 L171.5,277.5 L171.6,277.5 L171.7,277.5 L171.9,277.5    L172.0,277.5 L172.1,277.5 L172.2,277.5 L172.3,277.5 L172.5,277.5 L172.6,277.5 L172.7,277.5 L172.8,277.5    L172.9,277.5 L173.1,277.5 L173.2,277.5 L173.3,277.5 L173.4,277.5 L173.5,277.5 L173.6,277.5 L173.8,277.5    L173.9,277.5 L174.0,277.5 L174.1,277.5 L174.2,277.5 L174.4,277.5 L174.5,277.5 L174.6,277.5 L174.7,277.5    L174.8,277.5 L175.0,277.5 L175.1,277.5 L175.2,277.5 L175.3,277.5 L175.4,277.5 L175.5,277.5 L175.7,277.5    L175.8,277.5 L175.9,277.5 L176.0,277.5 L176.1,277.5 L176.3,277.5 L176.4,277.5 L176.5,277.5 L176.6,277.5    L176.7,277.5 L176.9,277.5 L177.0,277.5 L177.1,277.5 L177.2,277.5 L177.3,277.5 L177.4,277.5 L177.6,277.5    L177.7,277.5 L177.8,277.5 L177.9,277.5 L178.0,277.5 L178.2,277.5 L178.3,277.5 L178.4,277.5 L178.5,277.5    L178.6,277.5 L178.8,277.5 L178.9,277.5 L179.0,277.5 L179.1,277.5 L179.2,277.5 L179.4,277.5 L179.5,277.5    L179.6,277.5 L179.7,277.5 L179.8,277.5 L179.9,277.5 L180.1,277.5 L180.2,277.5 L180.3,277.5 L180.4,277.5    L180.5,277.5 L180.7,277.5 L180.8,277.5 L180.9,277.5 L181.0,277.5 L181.1,277.5 L181.3,277.5 L181.4,277.5    L181.5,277.5 L181.6,277.5 L181.7,277.5 L181.8,277.5 L182.0,277.5 L182.1,277.5 L182.2,277.5 L182.3,277.5    L182.4,277.5 L182.6,277.5 L182.7,277.5 L182.8,277.5 L182.9,277.5 L183.0,277.5 L183.2,277.5 L183.3,277.5    L183.4,277.5 L183.5,277.5 L183.6,277.5 L183.8,277.5 L183.9,277.5 L184.0,277.5 L184.1,277.5 L184.2,277.5    L184.3,277.5 L184.5,277.5 L184.6,277.5 L184.7,277.5 L184.8,277.5 L184.9,277.5 L185.1,277.5 L185.2,277.5    L185.3,277.5 L185.4,277.5 L185.5,277.5 L185.7,277.5 L185.8,277.5 L185.9,277.5 L186.0,277.5 L186.1,277.5    L186.2,277.5 L186.4,277.5 L186.5,277.5 L186.6,277.5 L186.7,277.5 L186.8,277.5 L187.0,277.5 L187.1,277.5    L187.2,277.5 L187.3,277.5 L187.4,277.5 L187.6,277.5 L187.7,277.5 L187.8,277.5 L187.9,277.5 L188.0,277.5    L188.1,277.5 L188.3,277.5 L188.4,277.5 L188.5,277.5 L188.6,277.5 L188.7,277.5 L188.9,277.5 L189.0,277.5    L189.1,277.5 L189.2,277.5 L189.3,277.5 L189.5,277.5 L189.6,277.5 L189.7,277.5 L189.8,277.5 L189.9,277.5    L190.1,277.5 L190.2,277.5 L190.3,277.5 L190.4,277.5 L190.5,277.5 L190.6,277.5 L190.8,277.5 L190.9,277.5    L191.0,277.5 L191.1,277.5 L191.2,277.5 L191.4,277.5 L191.5,277.5 L191.6,277.5 L191.7,277.5 L191.8,277.5    L192.0,277.5 L192.1,277.5 L192.2,277.5 L192.3,277.5 L192.4,277.5 L192.5,277.5 L192.7,277.5 L192.8,277.5    L192.9,277.5 L193.0,277.5 L193.1,277.5 L193.3,277.5 L193.4,277.5 L193.5,277.5 L193.6,277.5 L193.7,277.5    L193.9,277.5 L194.0,277.5 L194.1,277.5 L194.2,277.5 L194.3,277.5 L194.5,277.5 L194.6,277.5 L194.7,277.5    L194.8,277.5 L194.9,277.5 L195.0,277.5 L195.2,277.5 L195.3,277.5 L195.4,277.5 L195.5,277.5 L195.6,277.5    L195.8,277.5 L195.9,277.5 L196.0,277.5 L196.1,277.5 L196.2,277.5 L196.4,277.5 L196.5,277.5 L196.6,277.5    L196.7,277.5 L196.8,277.5 L196.9,277.5 L197.1,277.5 L197.2,277.5 L197.3,277.5 L197.4,277.5 L197.5,277.5    L197.7,277.5 L197.8,277.5 L197.9,277.5 L198.0,277.5 L198.1,277.5 L198.3,277.5 L198.4,277.5 L198.5,277.5    L198.6,277.5 L198.7,277.5 L198.8,277.5 L199.0,277.5 L199.1,277.5 L199.2,277.5 L199.3,277.5 L199.4,277.5    L199.6,277.5 L199.7,277.5 L199.8,277.5 L199.9,277.5 L200.0,277.5 L200.2,277.5 L200.3,277.5 L200.4,277.5    L200.5,277.5 L200.6,277.5 L200.8,277.5 L200.9,277.5 L201.0,277.5 L201.1,277.5 L201.2,277.5 L201.3,277.5    L201.5,277.5 L201.6,277.5 L201.7,277.5 L201.8,277.5 L201.9,277.5 L202.1,277.5 L202.2,277.5 L202.3,277.5    L202.4,277.5 L202.5,277.5 L202.7,277.5 L202.8,277.5 L202.9,277.5 L203.0,277.5 L203.1,277.5 L203.2,277.5    L203.4,277.5 L203.5,277.5 L203.6,277.5 L203.7,277.5 L203.8,277.5 L204.0,277.5 L204.1,277.5 L204.2,277.5    L204.3,277.5 L204.4,277.5 L204.6,277.5 L204.7,277.5 L204.8,277.5 L204.9,277.5 L205.0,277.5 L205.1,277.5    L205.3,277.5 L205.4,277.5 L205.5,277.5 L205.6,277.5 L205.7,277.5 L205.9,277.5 L206.0,277.5 L206.1,277.5    L206.2,277.5 L206.3,277.5 L206.5,277.5 L206.6,277.5 L206.7,277.5 L206.8,277.5 L206.9,277.5 L207.1,277.5    L207.2,277.5 L207.3,277.5 L207.4,277.5 L207.5,277.5 L207.6,277.5 L207.8,277.5 L207.9,277.5 L208.0,277.5    L208.1,277.5 L208.2,277.5 L208.4,277.5 L208.5,277.5 L208.6,277.5 L208.7,277.5 L208.8,277.5 L209.0,277.5    L209.1,277.5 L209.2,277.5 L209.3,277.5 L209.4,277.5 L209.5,277.5 L209.7,277.5 L209.8,277.5 L209.9,277.5    L210.0,277.5 L210.1,277.5 L210.3,277.5 L210.4,277.5 L210.5,277.5 L210.6,277.5 L210.7,277.5 L210.9,277.5    L211.0,277.5 L211.1,277.5 L211.2,277.5 L211.3,277.5 L211.5,277.5 L211.6,277.5 L211.7,277.5 L211.8,277.5    L211.9,277.5 L212.0,277.5 L212.2,277.5 L212.3,277.5 L212.4,277.5 L212.5,277.5 L212.6,277.5 L212.8,277.5    L212.9,277.5 L213.0,277.5 L213.1,277.5 L213.2,277.5 L213.4,277.5 L213.5,277.5 L213.6,277.5 L213.7,277.5    L213.8,277.5 L213.9,277.5 L214.1,277.5 L214.2,277.5 L214.3,277.5 L214.4,277.5 L214.5,277.5 L214.7,277.5    L214.8,277.5 L214.9,277.5 L215.0,277.5 L215.1,277.5 L215.3,277.5 L215.4,277.5 L215.5,277.5 L215.6,277.5    L215.7,277.5 L215.8,277.5 L216.0,277.5 L216.1,277.5 L216.2,277.5 L216.3,277.5 L216.4,277.5 L216.6,277.5    L216.7,277.5 L216.8,277.5 L216.9,277.5 L217.0,277.5 L217.2,277.5 L217.3,277.5 L217.4,277.5 L217.5,277.5    L217.6,277.5 L217.8,277.5 L217.9,277.5 L218.0,277.5 L218.1,277.5 L218.2,277.5 L218.3,277.5 L218.5,277.5    L218.6,277.5 L218.7,277.5 L218.8,277.5 L218.9,277.5 L219.1,277.5 L219.2,277.5 L219.3,277.5 L219.4,277.5    L219.5,277.5 L219.7,277.5 L219.8,277.5 L219.9,277.5 L220.0,277.5 L220.1,277.5 L220.2,277.5 L220.4,277.5    L220.5,277.5 L220.6,277.5 L220.7,277.5 L220.8,277.5 L221.0,277.5 L221.1,277.5 L221.2,277.5 L221.3,277.5    L221.4,277.5 L221.6,277.5 L221.7,277.5 L221.8,277.5 L221.9,277.5 L222.0,277.5 L222.2,277.5 L222.3,277.5    L222.4,277.5 L222.5,277.5 L222.6,277.5 L222.7,277.5 L222.9,277.5 L223.0,277.5 L223.1,277.5 L223.2,277.5    L223.3,277.5 L223.5,277.5 L223.6,277.5 L223.7,277.5 L223.8,277.5 L223.9,277.5 L224.1,277.5 L224.2,277.5    L224.3,277.5 L224.4,277.5 L224.5,277.5 L224.6,277.5 L224.8,277.5 L224.9,277.5 L225.0,277.5 L225.1,277.5    L225.2,277.5 L225.4,277.5 L225.5,277.5 L225.6,277.5 L225.7,277.5 L225.8,277.5 L226.0,277.5 L226.1,277.5    L226.2,277.5 L226.3,277.5 L226.4,277.5 L226.5,277.5 L226.7,277.5 L226.8,277.5 L226.9,277.5 L227.0,277.5    L227.1,277.5 L227.3,277.5 L227.4,277.5 L227.5,277.5 L227.6,277.5 L227.7,277.5 L227.9,277.5 L228.0,277.5    L228.1,277.5 L228.2,277.5 L228.3,277.5 L228.5,277.5 L228.6,277.5 L228.7,277.5 L228.8,277.5 L228.9,277.5    L229.0,277.5 L229.2,277.5 L229.3,277.5 L229.4,277.5 L229.5,277.5 L229.6,277.5 L229.8,277.5 L229.9,277.5    L230.0,277.5 L230.1,277.5 L230.2,277.5 L230.4,277.5 L230.5,277.5 L230.6,277.5 L230.7,277.5 L230.8,277.5    L230.9,277.5 L231.1,277.5 L231.2,277.5 L231.3,277.5 L231.4,277.5 L231.5,277.5 L231.7,277.5 L231.8,277.5    L231.9,277.5 L232.0,277.5 L232.1,277.5 L232.3,277.5 L232.4,277.5 L232.5,277.5 L232.6,277.5 L232.7,277.5    L232.8,277.5 L233.0,277.5 L233.1,277.5 L233.2,277.5 L233.3,277.5 L233.4,277.5 L233.6,277.5 L233.7,277.5    L233.8,277.5 L233.9,277.5 L234.0,277.5 L234.2,277.5 L234.3,277.5 L234.4,277.5 L234.5,277.5 L234.6,277.5    L234.8,277.5 L234.9,277.5 L235.0,277.5 L235.1,277.5 L235.2,277.5 L235.3,277.5 L235.5,277.5 L235.6,277.5    L235.7,277.5 L235.8,277.5 L235.9,277.5 L236.1,277.5 L236.2,277.5 L236.3,277.5 L236.4,277.5 L236.5,277.5    L236.7,277.5 L236.8,277.5 L236.9,277.5 L237.0,277.5 L237.1,277.5 L237.2,277.5 L237.4,277.5 L237.5,277.5    L237.6,277.5 L237.7,277.5 L237.8,277.5 L238.0,277.5 L238.1,277.5 L238.2,277.5 L238.3,277.5 L238.4,277.5    L238.6,277.5 L238.7,277.5 L238.8,277.5 L238.9,277.5 L239.0,277.5 L239.2,277.5 L239.3,277.5 L239.4,277.5    L239.5,277.5 L239.6,277.5 L239.7,277.5 L239.9,277.5 L240.0,277.5 L240.1,277.5 L240.2,277.5 L240.3,277.5    L240.5,277.5 L240.6,277.5 L240.7,277.5 L240.8,277.5 L240.9,277.5 L241.1,277.5 L241.2,277.5 L241.3,277.5    L241.4,277.5 L241.5,277.5 L241.6,277.5 L241.8,277.5 L241.9,277.5 L242.0,277.5 L242.1,277.5 L242.2,277.5    L242.4,277.5 L242.5,277.5 L242.6,277.5 L242.7,277.5 L242.8,277.5 L243.0,277.5 L243.1,277.5 L243.2,277.5    L243.3,277.5 L243.4,277.5 L243.5,277.5 L243.7,277.5 L243.8,277.5 L243.9,277.5 L244.0,277.5 L244.1,277.5    L244.3,277.5 L244.4,277.5 L244.5,277.5 L244.6,277.5 L244.7,277.5 L244.9,277.5 L245.0,277.5 L245.1,277.5    L245.2,277.5 L245.3,277.5 L245.5,277.5 L245.6,277.5 L245.7,277.5 L245.8,277.5 L245.9,277.5 L246.0,277.5    L246.2,277.5 L246.3,277.5 L246.4,277.5 L246.5,277.5 L246.6,277.5 L246.8,277.5 L246.9,277.5 L247.0,277.5    L247.1,277.5 L247.2,277.5 L247.4,277.5 L247.5,277.5 L247.6,277.5 L247.7,277.5 L247.8,277.5 L247.9,277.5    L248.1,277.5 L248.2,277.5 L248.3,277.5 L248.4,277.5 L248.5,277.5 L248.7,277.5 L248.8,277.5 L248.9,277.5    L249.0,277.5 L249.1,277.5 L249.3,277.5 L249.4,277.5 L249.5,277.5 L249.6,277.5 L249.7,277.5 L249.9,277.5    L250.0,277.5 L250.1,277.5 L250.2,277.5 L250.3,277.5 L250.4,277.5 L250.6,277.5 L250.7,277.5 L250.8,277.5    L250.9,277.5 L251.0,277.5 L251.2,277.5 L251.3,277.5 L251.4,277.5 L251.5,277.5 L251.6,277.5 L251.8,277.5    L251.9,277.5 L252.0,277.5 L252.1,277.5 L252.2,277.5 L252.3,277.5 L252.5,277.5 L252.6,277.5 L252.7,277.5    L252.8,277.5 L252.9,277.5 L253.1,277.5 L253.2,277.5 L253.3,277.5 L253.4,277.5 L253.5,277.5 L253.7,277.5    L253.8,277.5 L253.9,277.5 L254.0,277.5 L254.1,277.5 L254.2,277.5 L254.4,277.5 L254.5,277.5 L254.6,277.5    L254.7,277.5 L254.8,277.5 L255.0,277.5 L255.1,277.5 L255.2,277.5 L255.3,277.5 L255.4,277.5 L255.6,277.5    L255.7,277.5 L255.8,277.5 L255.9,277.5 L256.0,277.5 L256.2,277.5 L256.3,277.5 L256.4,277.5 L256.5,277.5    L256.6,277.5 L256.7,277.5 L256.9,277.5 L257.0,277.5 L257.1,277.5 L257.2,277.5 L257.3,277.5 L257.5,277.5    L257.6,277.5 L257.7,277.5 L257.8,277.5 L257.9,277.5 L258.1,277.5 L258.2,277.5 L258.3,277.5 L258.4,277.5    L258.5,277.5 L258.6,277.5 L258.8,277.5 L258.9,277.5 L259.0,277.5 L259.1,277.5 L259.2,277.5 L259.4,277.5    L259.5,277.5 L259.6,277.5 L259.7,277.5 L259.8,277.5 L260.0,277.5 L260.1,277.5 L260.2,277.5 L260.3,277.5    L260.4,277.5 L260.5,277.5 L260.7,277.5 L260.8,277.5 L260.9,277.5 L261.0,277.5 L261.1,277.5 L261.3,277.5    L261.4,277.5 L261.5,277.5 L261.6,277.5 L261.7,277.5 L261.9,277.5 L262.0,277.5 L262.1,277.5 L262.2,277.5    L262.3,277.5 L262.5,277.5 L262.6,277.5 L262.7,277.5 L262.8,277.5 L262.9,277.5 L263.0,277.5 L263.2,277.5    L263.3,277.5 L263.4,277.5 L263.5,277.5 L263.6,277.5 L263.8,277.5 L263.9,277.5 L264.0,277.5 L264.1,277.5    L264.2,277.5 L264.4,277.5 L264.5,277.5 L264.6,277.5 L264.7,277.5 L264.8,277.5 L264.9,277.5 L265.1,277.5    L265.2,277.5 L265.3,277.5 L265.4,277.5 L265.5,277.5 L265.7,277.5 L265.8,277.5 L265.9,277.5 L266.0,277.5    L266.1,277.5 L266.3,277.5 L266.4,277.5 L266.5,277.5 L266.6,277.5 L266.7,277.5 L266.9,277.5 L267.0,277.5    L267.1,277.5 L267.2,277.5 L267.3,277.5 L267.4,277.5 L267.6,277.5 L267.7,277.5 L267.8,277.5 L267.9,277.5    L268.0,277.5 L268.2,277.5 L268.3,277.5 L268.4,277.5 L268.5,277.5 L268.6,277.5 L268.8,277.5 L268.9,277.5    L269.0,277.5 L269.1,277.5 L269.2,277.5 L269.3,277.5 L269.5,277.5 L269.6,277.5 L269.7,277.5 L269.8,277.5    L269.9,277.5 L270.1,277.5 L270.2,277.5 L270.3,277.5 L270.4,277.5 L270.5,277.5 L270.7,277.5 L270.8,277.5    L270.9,277.5 L271.0,277.5 L271.1,277.5 L271.2,277.5 L271.4,277.5 L271.5,277.5 L271.6,277.5 L271.7,277.5    L271.8,277.5 L272.0,277.5 L272.1,277.5 L272.2,277.5 L272.3,277.5 L272.4,277.5 L272.6,277.5 L272.7,277.5    L272.8,277.5 L272.9,277.5 L273.0,277.5 L273.2,277.5 L273.3,277.5 L273.4,277.5 L273.5,277.5 L273.6,277.5    L273.7,277.5 L273.9,277.5 L274.0,277.5 L274.1,277.5 L274.2,277.5 L274.3,277.5 L274.5,277.5 L274.6,277.5    L274.7,277.5 L274.8,277.5 L274.9,277.5 L275.1,277.5 L275.2,277.5 L275.3,277.5 L275.4,277.5 L275.5,277.5    L275.6,277.5 L275.8,277.5 L275.9,277.5 L276.0,277.5 L276.1,277.5 L276.2,277.5 L276.4,277.5 L276.5,277.5    L276.6,277.5 L276.7,277.5 L276.8,277.5 L277.0,277.5 L277.1,277.5 L277.2,277.5 L277.3,277.5 L277.4,277.5    L277.6,277.5 L277.7,277.5 L277.8,277.5 L277.9,277.5 L278.0,277.5 L278.1,277.5 L278.3,277.5 L278.4,277.5    L278.5,277.5 L278.6,277.5 L278.7,277.5 L278.9,277.5 L279.0,277.5 L279.1,277.5 L279.2,277.5 L279.3,277.5    L279.5,277.5 L279.6,277.5 L279.7,277.5 L279.8,277.5 L279.9,277.5 L280.0,277.5 L280.2,277.5 L280.3,277.5    L280.4,277.5 L280.5,277.5 L280.6,277.5 L280.8,277.5 L280.9,277.5 L281.0,277.5 L281.1,277.5 L281.2,277.5    L281.4,277.5 L281.5,277.5 L281.6,277.5 L281.7,277.5 L281.8,277.5 L281.9,277.5 L282.1,277.5 L282.2,277.5    L282.3,277.5 L282.4,277.5 L282.5,277.5 L282.7,277.5 L282.8,277.5 L282.9,277.5 L283.0,277.5 L283.1,277.5    L283.3,277.5 L283.4,277.5 L283.5,277.5 L283.6,277.5 L283.7,277.5 L283.9,277.5 L284.0,277.5 L284.1,277.5    L284.2,277.5 L284.3,277.5 L284.4,277.5 L284.6,277.5 L284.7,277.5 L284.8,277.5 L284.9,277.5 L285.0,277.5    L285.2,277.5 L285.3,277.5 L285.4,277.5 L285.5,277.5 L285.6,277.5 L285.8,277.5 L285.9,277.5 L286.0,277.5    L286.1,277.5 L286.2,277.5 L286.3,277.5 L286.5,277.5 L286.6,277.5 L286.7,277.5 L286.8,277.5 L286.9,277.5    L287.1,277.5 L287.2,277.5 L287.3,277.5 L287.4,277.5 L287.5,277.5 L287.7,277.5 L287.8,277.5 L287.9,277.5    L288.0,277.5 L288.1,277.5 L288.2,277.5 L288.4,277.5 L288.5,277.5 L288.6,277.5 L288.7,277.5 L288.8,277.5    L289.0,277.5 L289.1,277.5 L289.2,277.5 L289.3,277.5 L289.4,277.5 L289.6,277.5 L289.7,277.5 L289.8,277.5    L289.9,277.5 L290.0,277.5 L290.2,277.5 L290.3,277.5 L290.4,277.5 L290.5,277.5 L290.6,277.5 L290.7,277.5    L290.9,277.5 L291.0,277.5 L291.1,277.5 L291.2,277.5 L291.3,277.5 L291.5,277.5 L291.6,277.5 L291.7,277.5    L291.8,277.5 L291.9,277.5 L292.1,277.5 L292.2,277.5 L292.3,277.5 L292.4,277.5 L292.5,277.5 L292.6,277.5    L292.8,277.5 L292.9,277.5 L293.0,277.5 L293.1,277.5 L293.2,277.5 L293.4,277.5 L293.5,277.5 L293.6,277.5    L293.7,277.5 L293.8,277.5 L294.0,277.5 L294.1,277.5 L294.2,277.5 L294.3,277.5 L294.4,277.5 L294.6,277.5    L294.7,277.5 L294.8,277.5 L294.9,277.5 L295.0,277.5 L295.1,277.5 L295.3,277.5 L295.4,277.5 L295.5,277.5    L295.6,277.5 L295.7,277.5 L295.9,277.5 L296.0,277.5 L296.1,277.5 L296.2,277.5 L296.3,277.5 L296.5,277.5    L296.6,277.5 L296.7,277.5 L296.8,277.5 L296.9,277.5 L297.0,277.5 L297.2,277.5 L297.3,277.5 L297.4,277.5    L297.5,277.5 L297.6,277.5 L297.8,277.5 L297.9,277.5 L298.0,277.5 L298.1,277.5 L298.2,277.5 L298.4,277.5    L298.5,277.5 L298.6,277.5 L298.7,277.5 L298.8,277.5 L298.9,277.5 L299.1,277.5 L299.2,277.5 L299.3,277.5    L299.4,277.5 L299.5,277.5 L299.7,277.5 L299.8,277.5 L299.9,277.5 L300.0,277.5 L300.1,277.5 L300.3,277.5    L300.4,277.5 L300.5,277.5 L300.6,277.5 L300.7,277.5 L300.9,277.5 L301.0,277.5 L301.1,277.5 L301.2,277.5    L301.3,277.5 L301.4,277.5 L301.6,277.5 L301.7,277.5 L301.8,277.5 L301.9,277.5 L302.0,277.5 L302.2,277.5    L302.3,277.5 L302.4,277.5 L302.5,277.5 L302.6,277.5 L302.8,277.5 L302.9,277.5 L303.0,277.5 L303.1,277.5    L303.2,277.5 L303.3,277.5 L303.5,277.5 L303.6,277.5 L303.7,277.5 L303.8,277.5 L303.9,277.5 L304.1,277.5    L304.2,277.5 L304.3,277.5 L304.4,277.5 L304.5,277.5 L304.7,277.5 L304.8,277.5 L304.9,277.5 L305.0,277.5    L305.1,277.5 L305.3,277.5 L305.4,277.5 L305.5,277.5 L305.6,277.5 L305.7,277.5 L305.8,277.5 L306.0,277.5    L306.1,277.5 L306.2,277.5 L306.3,277.5 L306.4,277.5 L306.6,277.5 L306.7,277.5 L306.8,277.5 L306.9,277.5    L307.0,277.5 L307.2,277.5 L307.3,277.5 L307.4,277.5 L307.5,277.5 L307.6,277.5 L307.7,277.5 L307.9,277.5    L308.0,277.5 L308.1,277.5 L308.2,277.5 L308.3,277.5 L308.5,277.5 L308.6,277.5 L308.7,277.5 L308.8,277.5    L308.9,277.5 L309.1,277.5 L309.2,277.5 L309.3,277.5 L309.4,277.5 L309.5,277.5 L309.6,277.5 L309.8,277.5    L309.9,277.5 L310.0,277.5 L310.1,277.5 L310.2,277.5 L310.4,277.5 L310.5,277.5 L310.6,277.5 L310.7,277.5    L310.8,277.5 L311.0,277.5 L311.1,277.5 L311.2,277.5 L311.3,277.5 L311.4,277.5 L311.6,277.5 L311.7,277.5    L311.8,277.5 L311.9,277.5 L312.0,277.5 L312.1,277.5 L312.3,277.5 L312.4,277.5 L312.5,277.5 L312.6,277.5    L312.7,277.5 L312.9,277.5 L313.0,277.5 L313.1,277.5 L313.2,277.5 L313.3,277.5 L313.5,277.5 L313.6,277.5    L313.7,277.5 L313.8,277.5 L313.9,277.5 L314.0,277.5 L314.2,277.5 L314.3,277.5 L314.4,277.5 L314.5,277.5    L314.6,277.5 L314.8,277.5 L314.9,277.5 L315.0,277.5 L315.1,277.5 L315.2,277.5 L315.4,277.5 L315.5,277.5    L315.6,277.5 L315.7,277.5 L315.8,277.5 L315.9,277.5 L316.1,277.5 L316.2,277.5 L316.3,277.5 L316.4,277.5    L316.5,277.5 L316.7,277.5 L316.8,277.5 L316.9,277.5 L317.0,277.5 L317.1,277.5 L317.3,277.5 L317.4,277.5    L317.5,277.5 L317.6,277.5 L317.7,277.5 L317.9,277.5 L318.0,277.5 L318.1,277.5 L318.2,277.5 L318.3,277.5    L318.4,277.5 L318.6,277.5 L318.7,277.5 L318.8,277.5 L318.9,277.5 L319.0,277.5 L319.2,277.5 L319.3,277.5    L319.4,277.5 L319.5,277.5 L319.6,277.5 L319.8,277.5 L319.9,277.5 L320.0,277.5 L320.1,277.5 L320.2,277.5    L320.3,277.5 L320.5,277.5 L320.6,277.5 L320.7,277.5 L320.8,277.5 L320.9,277.5 L321.1,277.5 L321.2,277.5    L321.3,277.5 L321.4,277.5 L321.5,277.5 L321.7,277.5 L321.8,277.5 L321.9,277.5 L322.0,277.5 L322.1,277.5    L322.3,277.5 L322.4,277.5 L322.5,277.5 L322.6,277.5 L322.7,277.5 L322.8,277.5 L323.0,277.5 L323.1,277.5    L323.2,277.5 L323.3,277.5 L323.4,277.5 L323.6,277.5 L323.7,277.5 L323.8,277.5 L323.9,277.5 L324.0,277.5    L324.2,277.5 L324.3,277.5 L324.4,277.5 L324.5,277.5 L324.6,277.5 L324.7,277.5 L324.9,277.5 L325.0,277.5    L325.1,277.5 L325.2,277.5 L325.3,277.5 L325.5,277.5 L325.6,277.5 L325.7,277.5 L325.8,277.5 L325.9,277.5    L326.1,277.5 L326.2,277.5 L326.3,277.5 L326.4,277.5 L326.5,277.5 L326.6,277.5 L326.8,277.5 L326.9,277.5    L327.0,277.5 L327.1,277.5 L327.2,277.5 L327.4,277.5 L327.5,277.5 L327.6,277.5 L327.7,277.5 L327.8,277.5    L328.0,277.5 L328.1,277.5 L328.2,277.5 L328.3,277.5 L328.4,277.5 L328.6,277.5 L328.7,277.5 L328.8,277.5    L328.9,277.5 L329.0,277.5 L329.1,277.5 L329.3,277.5 L329.4,277.5 L329.5,277.5 L329.6,277.5 L329.7,277.5    L329.9,277.5 L330.0,277.5 L330.1,277.5 L330.2,277.5 L330.3,277.5 L330.5,277.5 L330.6,277.5 L330.7,277.5    L330.8,277.5 L330.9,277.5 L331.0,277.5 L331.2,277.5 L331.3,277.5 L331.4,277.5 L331.5,277.5 L331.6,277.5    L331.8,277.5 L331.9,277.5 L332.0,277.5 L332.1,277.5 L332.2,277.5 L332.4,277.5 L332.5,277.5 L332.6,277.5    L332.7,277.5 L332.8,277.5 L332.9,277.5 L333.1,277.5 L333.2,277.5 L333.3,277.5 L333.4,277.5 L333.5,277.5    L333.7,277.5 L333.8,277.5 L333.9,277.5 L334.0,277.5 L334.1,277.5 L334.3,277.5 L334.4,277.5 L334.5,277.5    L334.6,277.5 L334.7,277.5 L334.9,277.5 L335.0,277.5 L335.1,277.5 L335.2,277.5 L335.3,277.5 L335.4,277.5    L335.6,277.5 L335.7,277.5 L335.8,277.5 L335.9,277.5 L336.0,277.5 L336.2,277.5 L336.3,277.5 L336.4,277.5    L336.5,277.5 L336.6,277.5 L336.8,277.5 L336.9,277.5 L337.0,277.5 L337.1,277.5 L337.2,277.5 L337.3,277.5    L337.5,277.5 L337.6,277.5 L337.7,277.5 L337.8,277.5 L337.9,277.5 L338.1,277.5 L338.2,277.5 L338.3,277.5    L338.4,277.5 L338.5,277.5 L338.7,277.5 L338.8,277.5 L338.9,277.5 L339.0,277.5 L339.1,277.5 L339.3,277.5    L339.4,277.5 L339.5,277.5 L339.6,277.5 L339.7,277.5 L339.8,277.5 L340.0,277.5 L340.1,277.5 L340.2,277.5    L340.3,277.5 L340.4,277.5 L340.6,277.5 L340.7,277.5 L340.8,277.5 L340.9,277.5 L341.0,277.5 L341.2,277.5    L341.3,277.5 L341.4,277.5 L341.5,277.5 L341.6,277.5 L341.7,277.5 L341.9,277.5 L342.0,277.5 L342.1,277.5    L342.2,277.5 L342.3,277.5 L342.5,277.5 L342.6,277.5 L342.7,277.5 L342.8,277.5 L342.9,277.5 L343.1,277.5    L343.2,277.5 L343.3,277.5 L343.4,277.5 L343.5,277.5 L343.6,277.5 L343.8,277.5 L343.9,277.5 L344.0,277.5    L344.1,277.5 L344.2,277.5 L344.4,277.5 L344.5,277.5 L344.6,277.5 L344.7,277.5 L344.8,277.5 L345.0,277.5    L345.1,277.5 L345.2,277.5 L345.3,277.5 L345.4,277.5 L345.6,277.5 L345.7,277.5 L345.8,277.5 L345.9,277.5    L346.0,277.5 L346.1,277.5 L346.3,277.5 L346.4,277.5 L346.5,277.5 L346.6,277.5 L346.7,277.5 L346.9,277.5    L347.0,277.5 L347.1,277.5 L347.2,277.5 L347.3,277.5 L347.5,277.5 L347.6,277.5 L347.7,277.5 L347.8,277.5    L347.9,277.5 L348.0,277.5 L348.2,277.5 L348.3,277.5 L348.4,277.5 L348.5,277.5 L348.6,277.5 L348.8,277.5    L348.9,277.5 L349.0,277.5 L349.1,277.5 L349.2,277.5 L349.4,277.5 L349.5,277.5 L349.6,277.5 L349.7,277.5    L349.8,277.5 L350.0,277.5 L350.1,277.5 L350.2,277.5 L350.3,277.5 L350.4,277.5 L350.5,277.5 L350.7,277.5    L350.8,277.5 L350.9,277.5 L351.0,277.5 L351.1,277.5 L351.3,277.5 L351.4,277.5 L351.5,277.5 L351.6,277.5    L351.7,277.5 L351.9,277.5 L352.0,277.5 L352.1,277.5 L352.2,277.5 L352.3,277.5 L352.4,277.5 L352.6,277.5    L352.7,277.5 L352.8,277.5 L352.9,277.5 L353.0,277.5 L353.2,277.5 L353.3,277.5 L353.4,277.5 L353.5,277.5    L353.6,277.5 L353.8,277.5 L353.9,277.5 L354.0,277.5 L354.1,277.5 L354.2,277.5 L354.3,277.5 L354.5,277.5    L354.6,277.5 L354.7,277.5 L354.8,277.5 L354.9,277.5 L355.1,277.5 L355.2,277.5 L355.3,277.5 L355.4,277.5    L355.5,277.5 L355.7,277.5 L355.8,277.5 L355.9,277.5 L356.0,277.5 L356.1,277.5 L356.3,277.5 L356.4,277.5    L356.5,277.5 L356.6,277.5 L356.7,277.5 L356.8,277.5 L357.0,277.5 L357.1,277.5 L357.2,277.5 L357.3,277.5    L357.4,277.5 L357.6,277.5 L357.7,277.5 L357.8,277.5 L357.9,277.5 L358.0,277.5 L358.2,277.5 L358.3,277.5    L358.4,277.5 L358.5,277.5 L358.6,277.5 L358.7,277.5 L358.9,277.5 L359.0,277.5 L359.1,277.5 L359.2,277.5    L359.3,277.5 L359.5,277.5 L359.6,277.5 L359.7,277.5 L359.8,277.5 L359.9,277.5 L360.1,277.5 L360.2,277.5    L360.3,277.5 L360.4,277.5 L360.5,277.5 L360.6,277.5 L360.8,277.5 L360.9,277.5 L361.0,277.5 L361.1,277.5    L361.2,277.5 L361.4,277.5 L361.5,277.5 L361.6,277.5 L361.7,277.5 L361.8,277.5 L362.0,277.5 L362.1,277.5    L362.2,277.5 L362.3,277.5 L362.4,277.5 L362.6,277.5 L362.7,277.5 L362.8,277.5 L362.9,277.5 L363.0,277.5    L363.1,277.5 L363.3,277.5 L363.4,277.5 L363.5,277.5 L363.6,277.5 L363.7,277.5 L363.9,277.5 L364.0,277.5    L364.1,277.5 L364.2,277.5 L364.3,277.5 L364.5,277.5 L364.6,277.5 L364.7,277.5 L364.8,277.5 L364.9,277.5    L365.0,277.5 L365.2,277.5 L365.3,277.5 L365.4,277.5 L365.5,277.5 L365.6,277.5 L365.8,277.5 L365.9,277.5    L366.0,277.5 L366.1,277.5 L366.2,277.5 L366.4,277.5 L366.5,277.5 L366.6,277.5 L366.7,277.5 L366.8,277.5    L367.0,277.5 L367.1,277.5 L367.2,277.5 L367.3,277.5 L367.4,277.5 L367.5,277.5 L367.7,277.5 L367.8,277.5    L367.9,277.5 L368.0,277.5 L368.1,277.5 L368.3,277.5 L368.4,277.5 L368.5,277.5 L368.6,277.5 L368.7,277.5    L368.9,277.5 L369.0,277.5 L369.1,277.5 L369.2,277.5 L369.3,277.5 L369.4,277.5 L369.6,277.5 L369.7,277.5    L369.8,277.5 L369.9,277.5 L370.0,277.5 L370.2,277.5 L370.3,277.5 L370.4,277.5 L370.5,277.5 L370.6,277.5    L370.8,277.5 L370.9,277.5 L371.0,277.5 L371.1,277.5 L371.2,277.5 L371.3,277.5 L371.5,277.5 L371.6,277.5    L371.7,277.5 L371.8,277.5 L371.9,277.5 L372.1,277.5 L372.2,277.5 L372.3,277.5 L372.4,277.5 L372.5,277.5    L372.7,277.5 L372.8,277.5 L372.9,277.5 L373.0,277.5 L373.1,277.5 L373.3,277.5 L373.4,277.5 L373.5,277.5    L373.6,277.5 L373.7,277.5 L373.8,277.5 L374.0,277.5 L374.1,277.5 L374.2,277.5 L374.3,277.5 L374.4,277.5    L374.6,277.5 L374.7,277.5 L374.8,277.5 L374.9,277.5 L375.0,277.5 L375.2,277.5 L375.3,277.5 L375.4,277.5    L375.5,277.5 L375.6,277.5 L375.7,277.5 L375.9,277.5 L376.0,277.5 L376.1,277.5 L376.2,277.5 L376.3,277.5    L376.5,277.5 L376.6,277.5 L376.7,277.5 L376.8,277.5 L376.9,277.5 L377.1,277.5 L377.2,277.5 L377.3,277.5    L377.4,277.5 L377.5,277.5 L377.7,277.5 L377.8,277.5 L377.9,277.5 L378.0,277.5 L378.1,277.5 L378.2,277.5    L378.4,277.5 L378.5,277.5 L378.6,277.5 L378.7,277.5 L378.8,277.5 L379.0,277.5 L379.1,277.5 L379.2,277.5    L379.3,277.5 L379.4,277.5 L379.6,277.5 L379.7,277.5 L379.8,277.5 L379.9,277.5 L380.0,277.5 L380.1,277.5    L380.3,277.5 L380.4,277.5 L380.5,277.5 L380.6,277.5 L380.7,277.5 L380.9,277.5 L381.0,277.5 L381.1,277.5    L381.2,277.5 L381.3,277.5 L381.5,277.5 L381.6,277.5 L381.7,277.5 L381.8,277.5 L381.9,277.5 L382.0,277.5    L382.2,277.5 L382.3,277.5 L382.4,277.5 L382.5,277.5 L382.6,277.5 L382.8,277.5 L382.9,277.5 L383.0,277.5    L383.1,277.5 L383.2,277.5 L383.4,277.5 L383.5,277.5 L383.6,277.5 L383.7,277.5 L383.8,277.5 L384.0,277.5    L384.1,277.5 L384.2,277.5 L384.3,277.5 L384.4,277.5 L384.5,277.5 L384.7,277.5 L384.8,277.5 L384.9,277.5    L385.0,277.5 L385.1,277.5 L385.3,277.5 L385.4,277.5 L385.5,277.5 L385.6,277.5 L385.7,277.5 L385.9,277.5    L386.0,277.5 L386.1,277.5 L386.2,277.5 L386.3,277.5 L386.4,277.5 L386.6,277.5 L386.7,277.5 L386.8,277.5    L386.9,277.5 L387.0,277.5 L387.2,277.5 L387.3,277.5 L387.4,277.5 L387.5,277.5 L387.6,277.5 L387.8,277.5    L387.9,277.5 L388.0,277.5 L388.1,277.5 L388.2,277.5 L388.3,277.5 L388.5,277.5 L388.6,277.5 L388.7,277.5    L388.8,277.5 L388.9,277.5 L389.1,277.5 L389.2,277.5 L389.3,277.5 L389.4,277.5 L389.5,277.5 L389.7,277.5    L389.8,277.5 L389.9,277.5 L390.0,277.5 L390.1,277.5 L390.3,277.5 L390.4,277.5 L390.5,277.5 L390.6,277.5    L390.7,277.5 L390.8,277.5 L391.0,277.5 L391.1,277.5 L391.2,277.5 L391.3,277.5 L391.4,277.5 L391.6,277.5    L391.7,277.5 L391.8,277.5 L391.9,277.5 L392.0,277.5 L392.2,277.5 L392.3,277.5 L392.4,277.5 L392.5,277.5    L392.6,277.5 L392.7,277.5 L392.9,277.5 L393.0,277.5 L393.1,277.5 L393.2,277.5 L393.3,277.5 L393.5,277.5    L393.6,277.5 L393.7,277.5 L393.8,277.5 L393.9,277.5 L394.1,277.5 L394.2,277.5 L394.3,277.5 L394.4,277.5    L394.5,277.5 L394.7,277.5 L394.8,277.5 L394.9,277.5 L395.0,277.5 L395.1,277.5 L395.2,277.5 L395.4,277.5    L395.5,277.5 L395.6,277.5 L395.7,277.5 L395.8,277.5 L396.0,277.5 L396.1,277.5 L396.2,277.5 L396.3,277.5    L396.4,277.5 L396.6,277.5 L396.7,277.5 L396.8,277.5 L396.9,277.5 L397.0,277.5 L397.1,277.5 L397.3,277.5    L397.4,277.5 L397.5,277.5 L397.6,277.5 L397.7,277.5 L397.9,277.5 L398.0,277.5 L398.1,277.5 L398.2,277.5    L398.3,277.5 L398.5,277.5 L398.6,277.5 L398.7,277.5 L398.8,277.5 L398.9,277.5 L399.0,277.5 L399.2,277.5    L399.3,277.5 L399.4,277.5 L399.5,277.5 L399.6,277.5 L399.8,277.5 L399.9,277.5 L400.0,277.5 L400.1,277.5    L400.2,277.5 L400.4,277.5 L400.5,277.5 L400.6,277.5 L400.7,277.5 L400.8,277.5 L401.0,277.5 L401.1,277.5    L401.2,277.5 L401.3,277.5 L401.4,277.5 L401.5,277.5 L401.7,277.5 L401.8,277.5 L401.9,277.5 L402.0,277.5    L402.1,277.5 L402.3,277.5 L402.4,277.5 L402.5,277.5 L402.6,277.5 L402.7,277.5 L402.9,277.5 L403.0,277.5    L403.1,277.5 L403.2,277.5 L403.3,277.5 L403.4,277.5 L403.6,277.5 L403.7,277.5 L403.8,277.5 L403.9,277.5    L404.0,277.5 L404.2,277.5 L404.3,277.5 L404.4,277.5 L404.5,277.5 L404.6,277.5 L404.8,277.5 L404.9,277.5    L405.0,277.5 L405.1,277.5 L405.2,277.5 L405.4,277.5 L405.5,277.5 L405.6,277.5 L405.7,277.5 L405.8,277.5    L405.9,277.5 L406.1,277.5 L406.2,277.5 L406.3,277.5 L406.4,277.5 L406.5,277.5 L406.7,277.5 L406.8,277.5    L406.9,277.5 L407.0,277.5 L407.1,277.5 L407.3,277.5 L407.4,277.5 L407.5,277.5 L407.6,277.5 L407.7,277.5    L407.8,277.5 L408.0,277.5 L408.1,277.5 L408.2,277.5 L408.3,277.5 L408.4,277.5 L408.6,277.5 L408.7,277.5    L408.8,277.5 L408.9,277.5 L409.0,277.5 L409.2,277.5 L409.3,277.5 L409.4,277.5 L409.5,277.5 L409.6,277.5    L409.7,277.5 L409.9,277.5 L410.0,277.5 L410.1,277.5 L410.2,277.5 L410.3,277.5 L410.5,277.5 L410.6,277.5    L410.7,277.5 L410.8,277.5 L410.9,277.5 L411.1,277.5 L411.2,277.5 L411.3,277.5 L411.4,277.5 L411.5,277.5    L411.7,277.5 L411.8,277.5 L411.9,277.5 L412.0,277.5 L412.1,277.5 L412.2,277.5 L412.4,277.5 L412.5,277.5    L412.6,277.5 L412.7,277.5 L412.8,277.5 L413.0,277.5 L413.1,277.5 L413.2,277.5 L413.3,277.5 L413.4,277.5    L413.6,277.5 L413.7,277.5 L413.8,277.5 L413.9,277.5 L414.0,277.5 L414.1,277.5 L414.3,277.5 L414.4,277.5    L414.5,277.5 L414.6,277.5 L414.7,277.5 L414.9,277.5 L415.0,277.5 L415.1,277.5 L415.2,277.5 L415.3,277.5    L415.5,277.5 L415.6,277.5 L415.7,277.5 L415.8,277.5 L415.9,277.5 L416.0,277.5 L416.2,277.5 L416.3,277.5    L416.4,277.5 L416.5,277.5 L416.6,277.5 L416.8,277.5 L416.9,277.5 L417.0,277.5 L417.1,277.5 L417.2,277.5    L417.4,277.5 L417.5,277.5 L417.6,277.5 L417.7,277.5 L417.8,277.5 L418.0,277.5 L418.1,277.5 L418.2,277.5    L418.3,277.5 L418.4,277.5 L418.5,277.5 L418.7,277.5 L418.8,277.5 L418.9,277.5 L419.0,277.5 L419.1,277.5    L419.3,277.5 L419.4,277.5 L419.5,277.5 L419.6,277.5 L419.7,277.5 L419.9,277.5 L420.0,277.5 L420.1,277.5    L420.2,277.5 L420.3,277.5 L420.4,277.5 L420.6,277.5 L420.7,277.5 L420.8,277.5 L420.9,277.5 L421.0,277.5    L421.2,277.5 L421.3,277.5 L421.4,277.5 L421.5,277.5 L421.6,277.5 L421.8,277.5 L421.9,277.5 L422.0,277.5    L422.1,277.5 L422.2,277.5 L422.4,277.5 L422.5,277.5 L422.6,277.5 L422.7,277.5 L422.8,277.5 L422.9,277.5    L423.1,277.5 L423.2,277.5 L423.3,277.5 L423.4,277.5 L423.5,277.5 L423.7,277.5 L423.8,277.5 L423.9,277.5    L424.0,277.5 L424.1,277.5 L424.3,277.5 L424.4,277.5 L424.5,277.5 L424.6,277.5 L424.7,277.5 L424.8,277.5    L425.0,277.5 L425.1,277.5 L425.2,277.5 L425.3,277.5 L425.4,277.5 L425.6,277.5 L425.7,277.5 L425.8,277.5    L425.9,277.5 L426.0,277.5 L426.2,277.5 L426.3,277.5 L426.4,277.5 L426.5,277.5 L426.6,277.5 L426.7,277.5    L426.9,277.5 L427.0,277.5 L427.1,277.5 L427.2,277.5 L427.3,277.5 L427.5,277.5 L427.6,277.5 L427.7,277.5    L427.8,277.5 L427.9,277.5 L428.1,277.5 L428.2,277.5 L428.3,277.5 L428.4,277.5 L428.5,277.5 L428.7,277.5    L428.8,277.5 L428.9,277.5 L429.0,277.5 L429.1,277.5 L429.2,277.5 L429.4,277.5 L429.5,277.5 L429.6,277.5    L429.7,277.5 L429.8,277.5 L430.0,277.5 L430.1,277.5 L430.2,277.5 L430.3,277.5 L430.4,277.5 L430.6,277.5    L430.7,277.5 L430.8,277.5 L430.9,277.5 L431.0,277.5 L431.1,277.5 L431.3,277.5 L431.4,277.5 L431.5,277.5    L431.6,277.5 L431.7,277.5 L431.9,277.5 L432.0,277.5 L432.1,277.5 L432.2,277.5 L432.3,277.5 L432.5,277.5    L432.6,277.5 L432.7,277.5 L432.8,277.5 L432.9,277.5 L433.1,277.5 L433.2,277.5 L433.3,277.5 L433.4,277.5    L433.5,277.5 L433.6,277.5 L433.8,277.5 L433.9,277.5 L434.0,277.5 L434.1,277.5 L434.2,277.5 L434.4,277.5    L434.5,277.5 L434.6,277.5 L434.7,277.5 L434.8,277.5 L435.0,277.5 L435.1,277.5 L435.2,277.5 L435.3,277.5    L435.4,277.5 L435.5,277.5 L435.7,277.5 L435.8,277.5 L435.9,277.5 L436.0,277.5 L436.1,277.5 L436.3,277.5    L436.4,277.5 L436.5,277.5 L436.6,277.5 L436.7,277.5 L436.9,277.5 L437.0,277.5 L437.1,277.5 L437.2,277.5    L437.3,277.5 L437.4,277.5 L437.6,277.5 L437.7,277.5 L437.8,277.5 L437.9,277.5 L438.0,277.5 L438.2,277.5    L438.3,277.5 L438.4,277.5 L438.5,277.5 L438.6,277.5 L438.8,277.5 L438.9,277.5 L439.0,277.5 L439.1,277.5    L439.2,277.5 L439.4,277.5 L439.5,277.5 L439.6,277.5 L439.7,277.5 L439.8,277.5 L439.9,277.5 L440.1,277.5    L440.2,277.5 L440.3,277.5 L440.4,277.5 L440.5,277.5 L440.7,277.5 L440.8,277.5 L440.9,277.5 L441.0,277.5    L441.1,277.5 L441.3,277.5 L441.4,277.5 L441.5,277.5 L441.6,277.5 L441.7,277.5 L441.8,277.5 L442.0,277.5    L442.1,277.5 L442.2,277.5 L442.3,277.5 L442.4,277.5 L442.6,277.5 L442.7,277.5 L442.8,277.5 L442.9,277.5    L443.0,277.5 L443.2,277.5 L443.3,277.5 L443.4,277.5 L443.5,277.5 L443.6,277.5 L443.7,277.5 L443.9,277.5    L444.0,277.5 L444.1,277.5 L444.2,277.5 L444.3,277.5 L444.5,277.5 L444.6,277.5 L444.7,277.5 L444.8,277.5    L444.9,277.5 L445.1,277.5 L445.2,277.5 L445.3,277.5 L445.4,277.5 L445.5,277.5 L445.7,277.5 L445.8,277.5    L445.9,277.5 L446.0,277.5 L446.1,277.5 L446.2,277.5 L446.4,277.5 L446.5,277.5 L446.6,277.5 L446.7,277.5    L446.8,277.5 L447.0,277.5 L447.1,277.5 L447.2,277.5 L447.3,277.5 L447.4,277.5 L447.6,277.5 L447.7,277.5    L447.8,277.5 L447.9,277.5 L448.0,277.5 L448.1,277.5 L448.3,277.5 L448.4,277.5 L448.5,277.5 L448.6,277.5    L448.7,277.5 L448.9,277.5 L449.0,277.5 L449.1,277.5 L449.2,277.5 L449.3,277.5 L449.5,277.5 L449.6,277.5    L449.7,277.5 L449.8,277.5 L449.9,277.5 L450.1,277.5 L450.2,277.5 L450.3,277.5 L450.4,277.5 L450.5,277.5    L450.6,277.5 L450.8,277.5 L450.9,277.5 L451.0,277.5 L451.1,277.5 L451.2,277.5 L451.4,277.5 L451.5,277.5    L451.6,277.5 L451.7,277.5 L451.8,277.5 L452.0,277.5 L452.1,277.5 L452.2,277.5 L452.3,277.5 L452.4,277.5    L452.5,277.5 L452.7,277.5 L452.8,277.5 L452.9,277.5 L453.0,277.5 L453.1,277.5 L453.3,277.5 L453.4,277.5    L453.5,277.5 L453.6,277.5 L453.7,277.5 L453.9,277.5 L454.0,277.5 L454.1,277.5 L454.2,277.5 L454.3,277.5    L454.4,277.5 L454.6,277.5 L454.7,277.5 L454.8,277.5 L454.9,277.5 L455.0,277.5 L455.2,277.5 L455.3,277.5    L455.4,277.5 L455.5,277.5 L455.6,277.5 L455.8,277.5 L455.9,277.5 L456.0,277.5 L456.1,277.5 L456.2,277.5    L456.4,277.5 L456.5,277.5 L456.6,277.5 L456.7,277.5 L456.8,277.5 L456.9,277.5 L457.1,277.5 L457.2,277.5    L457.3,277.5 L457.4,277.5 L457.5,277.5 L457.7,277.5 L457.8,277.5 L457.9,277.5 L458.0,277.5 L458.1,277.5    L458.3,277.5 L458.4,277.5 L458.5,277.5 L458.6,277.5 L458.7,277.5 L458.8,277.5 L459.0,277.5 L459.1,277.5    L459.2,277.5 L459.3,277.5 L459.4,277.5 L459.6,277.5 L459.7,277.5 L459.8,277.5 L459.9,277.5 L460.0,277.5    L460.2,277.5 L460.3,277.5 L460.4,277.5 L460.5,277.5 L460.6,277.5 L460.8,277.5 L460.9,277.5 L461.0,277.5    L461.1,277.5 L461.2,277.5 L461.3,277.5 L461.5,277.5 L461.6,277.5 L461.7,277.5 L461.8,277.5 L461.9,277.5    L462.1,277.5 L462.2,277.5 L462.3,277.5 L462.4,277.5 L462.5,277.5 L462.7,277.5 L462.8,277.5 L462.9,277.5    L463.0,277.5 L463.1,277.5 L463.2,277.5 L463.4,277.5 L463.5,277.5 L463.6,277.5 L463.7,277.5 L463.8,277.5    L464.0,277.5 L464.1,277.5 L464.2,277.5 L464.3,277.5 L464.4,277.5 L464.6,277.5 L464.7,277.5 L464.8,277.5    L464.9,277.5 L465.0,277.5 L465.1,277.5 L465.3,277.5 L465.4,277.5 L465.5,277.5 L465.6,277.5 L465.7,277.5    L465.9,277.5 L466.0,277.5 L466.1,277.5 L466.2,277.5 L466.3,277.5 L466.5,277.5 L466.6,277.5 L466.7,277.5    L466.8,277.5 L466.9,277.5 L467.1,277.5 L467.2,277.5 L467.3,277.5 L467.4,277.5 L467.5,277.5 L467.6,277.5    L467.8,277.5 L467.9,277.5 L468.0,277.5 L468.1,277.5 L468.2,277.5 L468.4,277.5 L468.5,277.5 L468.6,277.5    L468.7,277.5 L468.8,277.5 L469.0,277.5 L469.1,277.5 L469.2,277.5 L469.3,277.5 L469.4,277.5 L469.5,277.5    L469.7,277.5 L469.8,277.5 L469.9,277.5 L470.0,277.5 L470.1,277.5 L470.3,277.5 L470.4,277.5 L470.5,277.5    L470.6,277.5 L470.7,277.5 L470.9,277.5 L471.0,277.5 L471.1,277.5 L471.2,277.5 L471.3,277.5 L471.4,277.5    L471.6,277.5 L471.7,277.5 L471.8,277.5 L471.9,277.5 L472.0,277.5 L472.2,277.5 L472.3,277.5 L472.4,277.5    L472.5,277.5 L472.6,277.5 L472.8,277.5 L472.9,277.5 L473.0,277.5 L473.1,277.5 L473.2,277.5 L473.4,277.5    L473.5,277.5 L473.6,277.5 L473.7,277.5 L473.8,277.5 L473.9,277.5 L474.1,277.5 L474.2,277.5 L474.3,277.5    L474.4,277.5 L474.5,277.5 L474.7,277.5 L474.8,277.5 L474.9,277.5 L475.0,277.5 L475.1,277.5 L475.3,277.5    L475.4,277.5 L475.5,277.5 L475.6,277.5 L475.7,277.5 L475.8,277.5 L476.0,277.5 L476.1,277.5 L476.2,277.5    L476.3,277.5 L476.4,277.5 L476.6,277.5 L476.7,277.5 L476.8,277.5 L476.9,277.5 L477.0,277.5 L477.2,277.5    L477.3,277.5 L477.4,277.5 L477.5,277.5 L477.6,277.5 L477.8,277.5 L477.9,277.5 L478.0,277.5 L478.1,277.5    L478.2,277.5 L478.3,277.5 L478.5,277.5 L478.6,277.5 L478.7,277.5 L478.8,277.5 L478.9,277.5 L479.1,277.5    L479.2,277.5 L479.3,277.5 L479.4,277.5 L479.5,277.5 L479.7,277.5 L479.8,277.5 L479.9,277.5 L480.0,277.5    L480.1,277.5 L480.2,277.5 L480.4,277.5 L480.5,277.5 L480.6,277.5 L480.7,277.5 L480.8,277.5 L481.0,277.5    L481.1,277.5 L481.2,277.5 L481.3,277.5 L481.4,277.5 L481.6,277.5 L481.7,277.5 L481.8,277.5 L481.9,277.5    L482.0,277.5 L482.1,277.5 L482.3,277.5 L482.4,277.5 L482.5,277.5 L482.6,277.5 L482.7,277.5 L482.9,277.5    L483.0,277.5 L483.1,277.5 L483.2,277.5 L483.3,277.5 L483.5,277.5 L483.6,277.5 L483.7,277.5 L483.8,277.5    L483.9,277.5 L484.1,277.5 L484.2,277.5 L484.3,277.5 L484.4,277.5 L484.5,277.5 L484.6,277.5 L484.8,277.5    L484.9,277.5 L485.0,277.5 L485.1,277.5 L485.2,277.5 L485.4,277.5 L485.5,277.5 L485.6,277.5 L485.7,277.5    L485.8,277.5 L486.0,277.5 L486.1,277.5 L486.2,277.5 L486.3,277.5 L486.4,277.5 L486.5,277.5 L486.7,277.5    L486.8,277.5 L486.9,277.5 L487.0,277.5 L487.1,277.5 L487.3,277.5 L487.4,277.5 L487.5,277.5 L487.6,277.5    L487.7,277.5 L487.9,277.5 L488.0,277.5 L488.1,277.5 L488.2,277.5 L488.3,277.5 L488.4,277.5 L488.6,277.5    L488.7,277.5 L488.8,277.5 L488.9,277.5 L489.0,277.5 L489.2,277.5 L489.3,277.5 L489.4,277.5 L489.5,277.5    L489.6,277.5 L489.8,277.5 L489.9,277.5 L490.0,277.5 L490.1,277.5 L490.2,277.5 L490.4,277.5 L490.5,277.5    L490.6,277.5 L490.7,277.5 L490.8,277.5 L490.9,277.5 L491.1,277.5 L491.2,277.5 L491.3,277.5 L491.4,277.5    L491.5,277.5 L491.7,277.5 L491.8,277.5 L491.9,277.5 L492.0,277.5 L492.1,277.5 L492.3,277.5 L492.4,277.5    L492.5,277.5 L492.6,277.5 L492.7,277.5 L492.8,277.5 L493.0,277.5 L493.1,277.5 L493.2,277.5 L493.3,277.5    L493.4,277.5 L493.6,277.5 L493.7,277.5 L493.8,277.5 L493.9,277.5 L494.0,277.5 L494.2,277.5 L494.3,277.5    L494.4,277.5 L494.5,277.5 L494.6,277.5 L494.8,277.5 L494.9,277.5 L495.0,277.5 L495.1,277.5 L495.2,277.5    L495.3,277.5 L495.5,277.5 L495.6,277.5 L495.7,277.5 L495.8,277.5 L495.9,277.5 L496.1,277.5 L496.2,277.5    L496.3,277.5 L496.4,277.5 L496.5,277.5 L496.7,277.5 L496.8,277.5 L496.9,277.5 L497.0,277.5 L497.1,277.5    L497.2,277.5 L497.4,277.5 L497.5,277.5 L497.6,277.5 L497.7,277.5 L497.8,277.5 L498.0,277.5 L498.1,277.5    L498.2,277.5 L498.3,277.5 L498.4,277.5 L498.6,277.5 L498.7,277.5 L498.8,277.5 L498.9,277.5 L499.0,277.5    L499.1,277.5 L499.3,277.5 L499.4,277.5 L499.5,277.5 L499.6,277.5 L499.7,277.5 L499.9,277.5 L500.0,277.5    L500.1,277.5 L500.2,277.5 L500.3,277.5 L500.5,277.5 L500.6,277.5 L500.7,277.5 L500.8,277.5 L500.9,277.5    L501.1,277.5 L501.2,277.5 L501.3,277.5 L501.4,277.5 L501.5,277.5 L501.6,277.5 L501.8,277.5 L501.9,277.5    L502.0,277.5 L502.1,277.5 L502.2,277.5 L502.4,277.5 L502.5,277.5 L502.6,277.5 L502.7,277.5 L502.8,277.5    L503.0,277.5 L503.1,277.5 L503.2,277.5 L503.3,277.5 L503.4,277.5 L503.5,277.5 L503.7,277.5 L503.8,277.5    L503.9,277.5 L504.0,277.5 L504.1,277.5 L504.3,277.5 L504.4,277.5 L504.5,277.5 L504.6,277.5 L504.7,277.5    L504.9,277.5 L505.0,277.5 L505.1,277.5 L505.2,277.5 L505.3,277.5 L505.5,277.5 L505.6,277.5 L505.7,277.5    L505.8,277.5 L505.9,277.5 L506.0,277.5 L506.2,277.5 L506.3,277.5 L506.4,277.5 L506.5,277.5 L506.6,277.5    L506.8,277.5 L506.9,277.5 L507.0,277.5 L507.1,277.5 L507.2,277.5 L507.4,277.5 L507.5,277.5 L507.6,277.5    L507.7,277.5 L507.8,277.5 L507.9,277.5 L508.1,277.5 L508.2,277.5 L508.3,277.5 L508.4,277.5 L508.5,277.5    L508.7,277.5 L508.8,277.5 L508.9,277.5 L509.0,277.5 L509.1,277.5 L509.3,277.5 L509.4,277.5 L509.5,277.5    L509.6,277.5 L509.7,277.5 L509.8,277.5 L510.0,277.5 L510.1,277.5 L510.2,277.5 L510.3,277.5 L510.4,277.5    L510.6,277.5 L510.7,277.5 L510.8,277.5 L510.9,277.5 L511.0,277.5 L511.2,277.5 L511.3,277.5 L511.4,277.5    L511.5,277.5 L511.6,277.5 L511.8,277.5 L511.9,277.5 L512.0,277.5 L512.1,277.5 L512.2,277.5 L512.3,277.5    L512.5,277.5 L512.6,277.5 L512.7,277.5 L512.8,277.5 L512.9,277.5 L513.1,277.5 L513.2,277.5 L513.3,277.5    L513.4,277.5 L513.5,277.5 L513.7,277.5 L513.8,277.5 L513.9,277.5 L514.0,277.5 L514.1,277.5 L514.2,277.5    L514.4,277.5 L514.5,277.5 L514.6,277.5 L514.7,277.5 L514.8,277.5 L515.0,277.5 L515.1,277.5 L515.2,277.5    L515.3,277.5 L515.4,277.5 L515.6,277.5 L515.7,277.5 L515.8,277.5 L515.9,277.5 L516.0,277.5 L516.1,277.5    L516.3,277.5 L516.4,277.5 L516.5,277.5 L516.6,277.5 L516.7,277.5 L516.9,277.5 L517.0,277.5 L517.1,277.5    L517.2,277.5 L517.3,277.5 L517.5,277.5 L517.6,277.5 L517.7,277.5 L517.8,277.5 L517.9,277.5 L518.1,277.5    L518.2,277.5 L518.3,277.5 L518.4,277.5 L518.5,277.5 L518.6,277.5 L518.8,277.5 L518.9,277.5 L519.0,277.5    L519.1,277.5 L519.2,277.5 L519.4,277.5 L519.5,277.5 L519.6,277.5 L519.7,277.5 L519.8,277.5 L520.0,277.5    L520.1,277.5 L520.2,277.5 L520.3,277.5 L520.4,277.5 L520.5,277.5 L520.7,277.5 L520.8,277.5 L520.9,277.5    L521.0,277.5 L521.1,277.5 L521.3,277.5 L521.4,277.5 L521.5,277.5 L521.6,277.5 L521.7,277.5 L521.9,277.5    L522.0,277.5 L522.1,277.5 L522.2,277.5 L522.3,277.5 L522.5,277.5 L522.6,277.5 L522.7,277.5 L522.8,277.5    L522.9,277.5 L523.0,277.5 L523.2,277.5 L523.3,277.5 L523.4,277.5 L523.5,277.5 L523.6,277.5 L523.8,277.5    L523.9,277.5 L524.0,277.5 L524.1,277.5 L524.2,277.5 L524.4,277.5 L524.5,277.5 L524.6,277.5 L524.7,277.5    L524.8,277.5 L524.9,277.5 L525.1,277.5 L525.2,277.5 L525.3,277.5 L525.4,277.5 L525.5,277.5 L525.7,277.5    L525.8,277.5 L525.9,277.5 L526.0,277.5 L526.1,277.5 L526.3,277.5 L526.4,277.5 L526.5,277.5 L526.6,277.5    L526.7,277.5 L526.8,277.5 L527.0,277.5 L527.1,277.5 L527.2,277.5 L527.3,277.5 L527.4,277.5 L527.6,277.5    L527.7,277.5 L527.8,277.5 L527.9,277.5 L528.0,277.5 L528.2,277.5 L528.3,277.5 L528.4,277.5 L528.5,277.5    L528.6,277.5 L528.8,277.5 L528.9,277.5 L529.0,277.5 L529.1,277.5 L529.2,277.5 L529.3,277.5 L529.5,277.5    L529.6,277.5 L529.7,277.5 L529.8,277.5 L529.9,277.5 L530.1,277.5 L530.2,277.5 L530.3,277.5 L530.4,277.5    L530.5,277.5 L530.7,277.5 L530.8,277.5 L530.9,277.5 L531.0,277.5 L531.1,277.5 L531.2,277.5 L531.4,277.5    L531.5,277.5 L531.6,277.5 L531.7,277.5 L531.8,277.5 L532.0,277.5 L532.1,277.5 L532.2,277.5 L532.3,277.5    L532.4,277.5 L532.6,277.5 L532.7,277.5 L532.8,277.5 L532.9,277.5 L533.0,277.5 L533.2,277.5 L533.3,277.5    L533.4,277.5 L533.5,277.5 L533.6,277.5 L533.7,277.5 L533.9,277.5 L534.0,277.5 L534.1,277.5 L534.2,277.5    L534.3,277.5 L534.5,277.5 L534.6,277.5 L534.7,277.5 L534.8,277.5 L534.9,277.5 L535.1,277.5 L535.2,277.5    L535.3,277.5 L535.4,277.5 L535.5,277.5 L535.6,277.5 L535.8,277.5 L535.9,277.5 L536.0,277.5 L536.1,277.5    L536.2,277.5 L536.4,277.5 L536.5,277.5 L536.6,277.5 L536.7,277.5 L536.8,277.5 L537.0,277.5 L537.1,277.5    L537.2,277.5 L537.3,277.5 L537.4,277.5 L537.5,277.5 L537.7,277.5 L537.8,277.5 L537.9,277.5 L538.0,277.5    L538.1,277.5 L538.3,277.5 L538.4,277.5 L538.5,277.5 L538.6,277.5 L538.7,277.5 L538.9,277.5 L539.0,277.5    L539.1,277.5 L539.2,277.5 L539.3,277.5 L539.5,277.5 L539.6,277.5 L539.7,277.5 L539.8,277.5 L539.9,277.5    L540.0,277.5 L540.2,277.5 L540.3,277.5 L540.4,277.5 L540.5,277.5 L540.6,277.5 L540.8,277.5 L540.9,277.5    L541.0,277.5 L541.1,277.5 L541.2,277.5 L541.4,277.5 L541.5,277.5 L541.6,277.5 L541.7,277.5 L541.8,277.5    L541.9,277.5 L542.1,277.5 L542.2,277.5 L542.3,277.5 L542.4,277.5 L542.5,277.5 L542.7,277.5 L542.8,277.5    L542.9,277.5 L543.0,277.5 L543.1,277.5 L543.3,277.5 L543.4,277.5 L543.5,277.5 L543.6,277.5 L543.7,277.5    L543.8,277.5 L544.0,277.5 L544.1,277.5 L544.2,277.5 L544.3,277.5 L544.4,277.5 L544.6,277.5 L544.7,277.5    L544.8,277.5 L544.9,277.5 L545.0,277.5 L545.2,277.5 L545.3,277.5 L545.4,277.5 L545.5,277.5 L545.6,277.5    L545.8,277.5 L545.9,277.5 L546.0,277.5 L546.1,277.5 L546.2,277.5 L546.3,277.5 L546.5,277.5 L546.6,277.5    L546.7,277.5 L546.8,277.5 L546.9,277.5 L547.1,277.5 L547.2,277.5 L547.3,277.5 L547.4,277.5 L547.5,277.5    L547.7,277.5 L547.8,277.5 L547.9,277.5 L548.0,277.5 L548.1,277.5 L548.2,277.5 L548.4,277.5 L548.5,277.5    L548.6,277.5 L548.7,277.5 L548.8,277.5 L549.0,277.5 L549.1,277.5 L549.2,277.5 L549.3,277.5 L549.4,277.5    L549.6,277.5 L549.7,277.5 L549.8,277.5 L549.9,277.5 L550.0,277.5 L550.2,277.5 L550.3,277.5 L550.4,277.5    L550.5,277.5 L550.6,277.5 L550.7,277.5 L550.9,277.5 L551.0,277.5 L551.1,277.5 L551.2,277.5 L551.3,277.5    L551.5,277.5 L551.6,277.5 L551.7,277.5 L551.8,277.5 L551.9,277.5 L552.1,277.5 L552.2,277.5 L552.3,277.5    L552.4,277.5 L552.5,277.5 L552.6,277.5 L552.8,277.5 L552.9,277.5 L553.0,277.5 L553.1,277.5 L553.2,277.5    L553.4,277.5 L553.5,277.5 L553.6,277.5 L553.7,277.5 L553.8,277.5 L554.0,277.5 L554.1,277.5 L554.2,277.5    L554.3,277.5 L554.4,277.5 L554.5,277.5 L554.7,277.5 L554.8,277.5 L554.9,277.5 L555.0,277.5 L555.1,277.5    L555.3,277.5 L555.4,277.5 L555.5,277.5 L555.6,277.5 L555.7,277.5 L555.9,277.5 L556.0,277.5 L556.1,277.5    L556.2,277.5 L556.3,277.5 L556.5,277.5 L556.6,277.5 L556.7,277.5 L556.8,277.5 L556.9,277.5 L557.0,277.5    L557.2,277.5 L557.3,277.5 L557.4,277.5 L557.5,277.5 L557.6,277.5 L557.8,277.5 L557.9,277.5 L558.0,277.5    L558.1,277.5 L558.2,277.5 L558.4,277.5 L558.5,277.5 L558.6,277.5 L558.7,277.5 L558.8,277.5 L558.9,277.5    L559.1,277.5 L559.2,277.5 L559.3,277.5 L559.4,277.5 L559.5,277.5 L559.7,277.5 L559.8,277.5 L559.9,277.5    L560.0,277.5 L560.1,277.5 L560.3,277.5 L560.4,277.5 L560.5,277.5 L560.6,277.5 L560.7,277.5 L560.9,277.5    L561.0,277.5 L561.1,277.5 L561.2,277.5 L561.3,277.5 L561.4,277.5 L561.6,277.5 L561.7,277.5 L561.8,277.5    L561.9,277.5 L562.0,277.5 L562.2,277.5 L562.3,277.5 L562.4,277.5 L562.5,277.5 L562.6,277.5 L562.8,277.5    L562.9,277.5 L563.0,277.5 L563.1,277.5 L563.2,277.5 L563.3,277.5 L563.5,277.5 L563.6,277.5 L563.7,277.5    L563.8,277.5 L563.9,277.5 L564.1,277.5 L564.2,277.5 L564.3,277.5 L564.4,277.5 L564.5,277.5 L564.7,277.5    L564.8,277.5 L564.9,277.5 L565.0,277.5 L565.1,277.5 L565.2,277.5 L565.4,277.5 L565.5,277.5 L565.6,277.5    L565.7,277.5 L565.8,277.5 L566.0,277.5 L566.1,277.5 L566.2,277.5 L566.3,277.5 L566.4,277.5 L566.6,277.5    L566.7,277.5 L566.8,277.5 L566.9,277.5 L567.0,277.5 L567.2,277.5 L567.3,277.5 L567.4,277.5 L567.5,277.5    L567.6,277.5 L567.7,277.5 L567.9,277.5 L568.0,277.5 L568.1,277.5 L568.2,277.5 L568.3,277.5 L568.5,277.5    L568.6,277.5 L568.7,277.5 L568.8,277.5 L568.9,277.5 L569.1,277.5 L569.2,277.5 L569.3,277.5 L569.4,277.5    L569.5,277.5 L569.6,277.5 L569.8,277.5 L569.9,277.5 L570.0,277.5 L570.1,277.5 L570.2,277.5 L570.4,277.5    L570.5,277.5 L570.6,277.5 L570.7,277.5 L570.8,277.5 L571.0,277.5 L571.1,277.5 L571.2,277.5 L571.3,277.5    L571.4,277.5 L571.5,277.5 L571.7,277.5 L571.8,277.5 L571.9,277.5 L572.0,277.5 L572.1,277.5 L572.3,277.5    L572.4,277.5 L572.5,277.5 L572.6,277.5 L572.7,277.5 L572.9,277.5 L573.0,277.5 L573.1,277.5 L573.2,277.5    L573.3,277.5 L573.5,277.5 L573.6,277.5 L573.7,277.5 L573.8,277.5 L573.9,277.5 L574.0,277.5 L574.2,277.5    L574.3,277.5 L574.4,277.5 L574.5,277.5 L574.6,277.5 L574.8,277.5 L574.9,277.5 L575.0,277.5 L575.1,277.5    L575.2,277.5 L575.4,277.5 L575.5,277.5 L575.6,277.5 L575.7,277.5 L575.8,277.5 L575.9,277.5 L576.1,277.5    L576.2,277.5 L576.3,277.5 L576.4,277.5 L576.5,277.5 L576.7,277.5 L576.8,277.5 L576.9,277.5 L577.0,277.5    L577.1,277.5 L577.3,277.5 L577.4,277.5 L577.5,277.5 L577.6,277.5 L577.7,277.5 L577.9,277.5 L578.0,277.5    L578.1,277.5 L578.2,277.5 L578.3,277.5 L578.4,277.5 L578.6,277.5 L578.7,277.5 L578.8,277.5 L578.9,277.5    L579.0,277.5 L579.2,277.5 L579.3,277.5 L579.4,277.5 L579.5,277.5 L579.6,277.5 L579.8,277.5 L579.9,277.5    L580.0,277.5 L580.1,277.5 L580.2,277.5 L580.3,277.5 L580.5,277.5 L580.6,277.5 L580.7,277.5 L580.8,277.5    L580.9,277.5 L581.1,277.5 L581.2,277.5 L581.3,277.5 L581.4,277.5 L581.5,277.5 L581.7,277.5 L581.8,277.5    L581.9,277.5 L582.0,277.5 L582.1,277.5 L582.2,277.5 L582.4,277.5 L582.5,277.5 L582.6,277.5 L582.7,277.5    L582.8,277.5 L583.0,277.5 L583.1,277.5 L583.2,277.5 L583.3,277.5 L583.4,277.5 L583.6,277.5 L583.7,277.5    L583.8,277.5 L583.9,277.5 L584.0,277.5 L584.2,277.5 L584.3,277.5 L584.4,277.5 L584.5,277.5 L584.6,277.5    L584.7,277.5 L584.9,277.5 L585.0,277.5 L585.1,277.5 L585.2,277.5 L585.3,277.5 L585.5,277.5 L585.6,277.5    L585.7,277.5 L585.8,277.5 L585.9,277.5 L586.1,277.5 L586.2,277.5 L586.3,277.5 L586.4,277.5 L586.5,277.5    L586.6,277.5 L586.8,277.5 L586.9,277.5 L587.0,277.5 L587.1,277.5 L587.2,277.5 L587.4,277.5 L587.5,277.5    L587.6,277.5 L587.7,277.5 L587.8,277.5 L588.0,277.5 L588.1,277.5 L588.2,277.5 L588.3,277.5 L588.4,277.5    L588.6,277.5 L588.7,277.5 L588.8,277.5 L588.9,277.5 L589.0,277.5 L589.1,277.5 L589.3,277.5 L589.4,277.5    L589.5,277.5 L589.6,277.5 L589.7,277.5 L589.9,277.5 L590.0,277.5 L590.1,277.5 L590.2,277.5 L590.3,277.5    L590.5,277.5 L590.6,277.5 L590.7,277.5 L590.8,277.5 L590.9,277.5 L591.0,277.5 L591.2,277.5 L591.3,277.5    L591.4,277.5 L591.5,277.5 L591.6,277.5 L591.8,277.5 L591.9,277.5 L592.0,277.5 L592.1,277.5 L592.2,277.5    L592.4,277.5 L592.5,277.5 L592.6,277.5 L592.7,277.5 L592.8,277.5 L592.9,277.5 L593.1,277.5 L593.2,277.5    L593.3,277.5 L593.4,277.5 L593.5,277.5 L593.7,277.5 L593.8,277.5 L593.9,277.5 L594.0,277.5 L594.1,277.5    L594.3,277.5 L594.4,277.5 L594.5,277.5 L594.6,277.5 L594.7,277.5 L594.9,277.5 L595.0,277.5 L595.1,277.5    L595.2,277.5 L595.3,277.5 L595.4,277.5 L595.6,277.5 L595.7,277.5 L595.8,277.5 L595.9,277.5 L596.0,277.5    L596.2,277.5 L596.3,277.5 L596.4,277.5 L596.5,277.5 L596.6,277.5 L596.8,277.5 L596.9,277.5 L597.0,277.5    L597.1,277.5 L597.2,277.5 L597.3,277.5 L597.5,277.5 L597.6,277.5 L597.7,277.5 L597.8,277.5 L597.9,277.5    L598.1,277.5 L598.2,277.5 L598.3,277.5 L598.4,277.5 L598.5,277.5 L598.7,277.5 L598.8,277.5 L598.9,277.5    L599.0,277.5 L599.1,277.5 L599.2,277.5 L599.4,277.5 L599.5,277.5 L599.6,277.5 L599.7,277.5 L599.8,277.5    L600.0,277.5 L600.1,277.5 L600.2,277.5 L600.3,277.5 L600.4,277.5 L600.6,277.5 L600.7,277.5 L600.8,277.5    L600.9,277.5 L601.0,277.5 L601.2,277.5 L601.3,277.5 L601.4,277.5 L601.5,277.5 L601.6,277.5 L601.7,277.5    L601.9,277.5 L602.0,277.5 L602.1,277.5 L602.2,277.5 L602.3,277.5 L602.5,277.5 L602.6,277.5 L602.7,277.5    L602.8,277.5 L602.9,277.5 L603.1,277.5 L603.2,277.5 L603.3,277.5 L603.4,277.5 L603.5,277.5 L603.6,277.5    L603.8,277.5 L603.9,277.5 L604.0,277.5 L604.1,277.5 L604.2,277.5 L604.4,277.5 L604.5,277.5 L604.6,277.5    L604.7,277.5 L604.8,277.5 L605.0,277.5 L605.1,277.5 L605.2,277.5 L605.3,277.5 L605.4,277.5 L605.6,277.5    L605.7,277.5 L605.8,277.5 L605.9,277.5 L606.0,277.5 L606.1,277.5 L606.3,277.5 L606.4,277.5 L606.5,277.5    L606.6,277.5 L606.7,277.5 L606.9,277.5 L607.0,277.5 L607.1,277.5 L607.2,277.5 L607.3,277.5 L607.5,277.5    L607.6,277.5 L607.7,277.5 L607.8,277.5 L607.9,277.5 L608.0,277.5 L608.2,277.5 L608.3,277.5 L608.4,277.5    L608.5,277.5 L608.6,277.5 L608.8,277.5 L608.9,277.5 L609.0,277.5 L609.1,277.5 L609.2,277.5 L609.4,277.5    L609.5,277.5 L609.6,277.5 L609.7,277.5 L609.8,277.5 L609.9,277.5 L610.1,277.5 L610.2,277.5 L610.3,277.5    L610.4,277.5 L610.5,277.5 L610.7,277.5 L610.8,277.5 L610.9,277.5 L611.0,277.5 L611.1,277.5 L611.3,277.5    L611.4,277.5 L611.5,277.5 L611.6,277.5 L611.7,277.5 L611.9,277.5 L612.0,277.5 L612.1,277.5 L612.2,277.5    L612.3,277.5 L612.4,277.5 L612.6,277.5 L612.7,277.5 L612.8,277.5 L612.9,277.5 L613.0,277.5 L613.2,277.5    L613.3,277.5 L613.4,277.5 L613.5,277.5 L613.6,277.5 L613.8,277.5 L613.9,277.5 L614.0,277.5 L614.1,277.5    L614.2,277.5 L614.3,277.5 L614.5,277.5 L614.6,277.5 L614.7,277.5 L614.8,277.5 L614.9,277.5 L615.1,277.5    L615.2,277.5 L615.3,277.5 L615.4,277.5 L615.5,277.5 L615.7,277.5 L615.8,277.5 L615.9,277.5 L616.0,277.5    L616.1,277.5 L616.3,277.5 L616.4,277.5 L616.5,277.5 L616.6,277.5 L616.7,277.5 L616.8,277.5 L617.0,277.5    L617.1,277.5 L617.2,277.5 L617.3,277.5 L617.4,277.5 L617.6,277.5 L617.7,277.5 L617.8,277.5 L617.9,277.5    L618.0,277.5 L618.2,277.5 L618.3,277.5 L618.4,277.5 L618.5,277.5 L618.6,277.5 L618.7,277.5 L618.9,277.5    L619.0,277.5 L619.1,277.5 L619.2,277.5 L619.3,277.5 L619.5,277.5 L619.6,277.5 L619.7,277.5 L619.8,277.5    L619.9,277.5 L620.1,277.5 L620.2,277.5 L620.3,277.5 L620.4,277.5 L620.5,277.5 L620.6,277.5 L620.8,277.5    L620.9,277.5 L621.0,277.5 L621.1,277.5 L621.2,277.5 L621.4,277.5 L621.5,277.5 L621.6,277.5 L621.7,277.5    L621.8,277.5 L622.0,277.5 L622.1,277.5 L622.2,277.5 L622.3,277.5 L622.4,277.5 L622.6,277.5 L622.7,277.5    L622.8,277.5 L622.9,277.5 L623.0,277.5 L623.1,277.5 L623.3,277.5 L623.4,277.5 L623.5,277.5 L623.6,277.5    L623.7,277.5 L623.9,277.5 L624.0,277.5 L624.1,277.5 L624.2,277.5 L624.3,277.5 L624.5,277.5 L624.6,277.5    L624.7,277.5 L624.8,277.5 L624.9,277.5 L625.0,277.5 L625.2,277.5 L625.3,277.5 L625.4,277.5 L625.5,277.5    L625.6,277.5 L625.8,277.5 L625.9,277.5 L626.0,277.5 L626.1,277.5 L626.2,277.5 L626.4,277.5 L626.5,277.5    L626.6,277.5 L626.7,277.5 L626.8,277.5 L626.9,277.5 L627.1,277.5 L627.2,277.5 L627.3,277.5 L627.4,277.5    L627.5,277.5 L627.7,277.5 L627.8,277.5 L627.9,277.5 L628.0,277.5 L628.1,277.5 L628.3,277.5 L628.4,277.5    L628.5,277.5 L628.6,277.5 L628.7,277.5 L628.9,277.5 L629.0,277.5 L629.1,277.5 L629.2,277.5 L629.3,277.5    L629.4,277.5 L629.6,277.5 L629.7,277.5 L629.8,277.5 L629.9,277.5 L630.0,277.5 L630.2,277.5 L630.3,277.5    L630.4,277.5 L630.5,277.5 L630.6,277.5 L630.8,277.5 L630.9,277.5 L631.0,277.5 L631.1,277.5 L631.2,277.5    L631.3,277.5 L631.5,277.5 L631.6,277.5 L631.7,277.5 L631.8,277.5 L631.9,277.5 L632.1,277.5 L632.2,277.5    L632.3,277.5 L632.4,277.5 L632.5,277.5 L632.7,277.5 L632.8,277.5 L632.9,277.5 L633.0,277.5 L633.1,277.5    L633.3,277.5 L633.4,277.5 L633.5,277.5 L633.6,277.5 L633.7,277.5 L633.8,277.5 L634.0,277.5 L634.1,277.5    L634.2,277.5 L634.3,277.5 L634.4,277.5 L634.6,277.5 L634.7,277.5 L634.8,277.5 L634.9,277.5 L635.0,277.5    L635.2,277.5 L635.3,277.5 L635.4,277.5 L635.5,277.5 L635.6,277.5 L635.7,277.5 L635.9,277.5 L636.0,277.5    L636.1,277.5 L636.2,277.5 L636.3,277.5 L636.5,277.5 L636.6,277.5 L636.7,277.5 L636.8,277.5 L636.9,277.5    L637.1,277.5 L637.2,277.5 L637.3,277.5 L637.4,277.5 L637.5,277.5 L637.6,277.5 L637.8,277.5 L637.9,277.5    L638.0,277.5 L638.1,277.5 L638.2,277.5 L638.4,277.5 L638.5,277.5 L638.6,277.5 L638.7,277.5 L638.8,277.5    L639.0,277.5 L639.1,277.5 L639.2,277.5 L639.3,277.5 L639.4,277.5 L639.6,277.5 L639.7,277.5 L639.8,277.5    L639.9,277.5 L640.0,277.5 L640.1,277.5 L640.3,277.5 L640.4,277.5 L640.5,277.5 L640.6,277.5 L640.7,277.5    L640.9,277.5 L641.0,277.5 L641.1,277.5 L641.2,277.5 L641.3,277.5 L641.5,277.5 L641.6,277.5 L641.7,277.5    L641.8,277.5 L641.9,277.5 L642.0,277.5 L642.2,277.5 L642.3,277.5 L642.4,277.5 L642.5,277.5 L642.6,277.5    L642.8,277.5 L642.9,277.5 L643.0,277.5 L643.1,277.5 L643.2,277.5 L643.4,277.5 L643.5,277.5 L643.6,277.5    L643.7,277.5 L643.8,277.5 L643.9,277.5 L644.1,277.5 L644.2,277.5 L644.3,277.5 L644.4,277.5 L644.5,277.5    L644.7,277.5 L644.8,277.5 L644.9,277.5 L645.0,277.5 L645.1,277.5 L645.3,277.5 L645.4,277.5 L645.5,277.5    L645.6,277.5 L645.7,277.5 L645.9,277.5 L646.0,277.5 L646.1,277.5 L646.2,277.5 L646.3,277.5 L646.4,277.5    L646.6,277.5 L646.7,277.5 L646.8,277.5 L646.9,277.5 L647.0,277.5 L647.2,277.5 L647.3,277.5 L647.4,277.5    L647.5,277.5 L647.6,277.5 L647.8,277.5 L647.9,277.5 L648.0,277.5 L648.1,277.5 L648.2,277.5 L648.3,277.5    L648.5,277.5 L648.6,277.5 L648.7,277.5 L648.8,277.5 L648.9,277.5 L649.1,277.5 L649.2,277.5 L649.3,277.5    L649.4,277.5 L649.5,277.5 L649.7,277.5 L649.8,277.5 L649.9,277.5 L650.0,277.5 L650.1,277.5 L650.3,277.5    L650.4,277.5 L650.5,277.5 L650.6,277.5 L650.7,277.5 L650.8,277.5 L651.0,277.5 L651.1,277.5 L651.2,277.5    L651.3,277.5 L651.4,277.5 L651.6,277.5 L651.7,277.5 L651.8,277.5 L651.9,277.5 L652.0,277.5 L652.2,277.5    L652.3,277.5 L652.4,277.5 L652.5,277.5 L652.6,277.5 L652.7,277.5 L652.9,277.5 L653.0,277.5 L653.1,277.5    L653.2,277.5 L653.3,277.5 L653.5,277.5 L653.6,277.5 L653.7,277.5 L653.8,277.5 L653.9,277.5 L654.1,277.5    L654.2,277.5 L654.3,277.5 L654.4,277.5 L654.5,277.5 L654.6,277.5 L654.8,277.5 L654.9,277.5 L655.0,277.5    L655.1,277.5 L655.2,277.5 L655.4,277.5 L655.5,277.5 L655.6,277.5 L655.7,277.5 L655.8,277.5 L656.0,277.5    L656.1,277.5 L656.2,277.5 L656.3,277.5 L656.4,277.5 L656.6,277.5 L656.7,277.5 L656.8,277.5 L656.9,277.5    L657.0,277.5 L657.1,277.5 L657.3,277.5 L657.4,277.5 L657.5,277.5 L657.6,277.5 L657.7,277.5 L657.9,277.5    L658.0,277.5 L658.1,277.5 L658.2,277.5 L658.3,277.5 L658.5,277.5 L658.6,277.5 L658.7,277.5 L658.8,277.5    L658.9,277.5 L659.0,277.5 L659.2,277.5 L659.3,277.5 L659.4,277.5 L659.5,277.5 L659.6,277.5 L659.8,277.5    L659.9,277.5 L660.0,277.5 L660.1,277.5 L660.2,277.5 L660.4,277.5 L660.5,277.5 L660.6,277.5 L660.7,277.5    L660.8,277.5 L661.0,277.5 L661.1,277.5 L661.2,277.5 L661.3,277.5 L661.4,277.5 L661.5,277.5 L661.7,277.5    L661.8,277.5 L661.9,277.5 L662.0,277.5 L662.1,277.5 L662.3,277.5 L662.4,277.5 L662.5,277.5 L662.6,277.5    L662.7,277.5 L662.9,277.5 L663.0,277.5 L663.1,277.5 L663.2,277.5 L663.3,277.5 L663.4,277.5 L663.6,277.5    L663.7,277.5 L663.8,277.5 L663.9,277.5 L664.0,277.5 L664.2,277.5 L664.3,277.5 L664.4,277.5 L664.5,277.5    L664.6,277.5 L664.8,277.5 L664.9,277.5 L665.0,277.5 L665.1,277.5 L665.2,277.5 L665.3,277.5 L665.5,277.5    L665.6,277.5 L665.7,277.5 L665.8,277.5 L665.9,277.5 L666.1,277.5 L666.2,277.5 L666.3,277.5 L666.4,277.5    L666.5,277.5 L666.7,277.5 L666.8,277.5 L666.9,277.5 L667.0,277.5 L667.1,277.5 L667.3,277.5 L667.4,277.5    L667.5,277.5 L667.6,277.5 L667.7,277.5 L667.8,277.5 L668.0,277.5 L668.1,277.5 L668.2,277.5 L668.3,277.5    L668.4,277.5 L668.6,277.5 L668.7,277.5 L668.8,277.5 L668.9,277.5 L669.0,277.5 L669.2,277.5 L669.3,277.5    L669.4,277.5 L669.5,277.5 L669.6,277.5 L669.7,277.5 L669.9,277.5 L670.0,277.5 L670.1,277.5 L670.2,277.5    L670.3,277.5 L670.5,277.5 L670.6,277.5 L670.7,277.5 L670.8,277.5 L670.9,277.5 L671.1,277.5 L671.2,277.5    L671.3,277.5 L671.4,277.5 L671.5,277.5 L671.6,277.5 L671.8,277.5 L671.9,277.5 L672.0,277.5 L672.1,277.5    L672.2,277.5 L672.4,277.5 L672.5,277.5 L672.6,277.5 L672.7,277.5 L672.8,277.5 L673.0,277.5 L673.1,277.5    L673.2,277.5 L673.3,277.5 L673.4,277.5 L673.6,277.5 L673.7,277.5 L673.8,277.5 L673.9,277.5 L674.0,277.5    L674.1,277.5 L674.3,277.5 L674.4,277.5 L674.5,277.5 L674.6,277.5 L674.7,277.5 L674.9,277.5 L675.0,277.5    L675.1,277.5 L675.2,277.5 L675.3,277.5 L675.5,277.5 L675.6,277.5 L675.7,277.5 L675.8,277.5 L675.9,277.5    L676.0,277.5 L676.2,277.5 L676.3,277.5 L676.4,277.5 L676.5,277.5 L676.6,277.5 L676.8,277.5 L676.9,277.5    L677.0,277.5 L677.1,277.5 L677.2,277.5 L677.4,277.5 L677.5,277.5 L677.6,277.5 L677.7,277.5 L677.8,277.5    L678.0,277.5 L678.1,277.5 L678.2,277.5 L678.3,277.5 L678.4,277.5 L678.5,277.5 L678.7,277.5 L678.8,277.5    L678.9,277.5 L679.0,277.5 L679.1,277.5 L679.3,277.5 L679.4,277.5 L679.5,277.5 L679.6,277.5 L679.7,277.5    L679.9,277.5 L680.0,277.5 L680.1,277.5 L680.2,277.5 L680.3,277.5 L680.4,277.5 L680.6,277.5 L680.7,277.5    L680.8,277.5 L680.9,277.5 L681.0,277.5 L681.2,277.5 L681.3,277.5 L681.4,277.5 L681.5,277.5 L681.6,277.5    L681.8,277.5 L681.9,277.5 L682.0,277.5 L682.1,277.5 L682.2,277.5 L682.3,277.5 L682.5,277.5 L682.6,277.5    L682.7,277.5 L682.8,277.5 L682.9,277.5 L683.1,277.5 L683.2,277.5 L683.3,277.5 L683.4,277.5 L683.5,277.5    L683.7,277.5 L683.8,277.5 L683.9,277.5 L684.0,277.5 L684.1,277.5 L684.3,277.5 L684.4,277.5 L684.5,277.5    L684.6,277.5 L684.7,277.5 L684.8,277.5 L685.0,277.5 L685.1,277.5 L685.2,277.5 L685.3,277.5 L685.4,277.5    L685.6,277.5 L685.7,277.5 L685.8,277.5 L685.9,277.5 L686.0,277.5 L686.2,277.5 L686.3,277.5 L686.4,277.5    L686.5,277.5 L686.6,277.5 L686.7,277.5 L686.9,277.5 L687.0,277.5 L687.1,277.5 L687.2,277.5 L687.3,277.5    L687.5,277.5 L687.6,277.5 L687.7,277.5 L687.8,277.5 L687.9,277.5 L688.1,277.5 L688.2,277.5 L688.3,277.5    L688.4,277.5 L688.5,277.5 L688.7,277.5 L688.8,277.5 L688.9,277.5 L689.0,277.5 L689.1,277.5 L689.2,277.5    L689.4,277.5 L689.5,277.5 L689.6,277.5 L689.7,277.5 L689.8,277.5 L690.0,277.5 L690.1,277.5 L690.2,277.5    L690.3,277.5 L690.4,277.5 L690.6,277.5 L690.7,277.5 L690.8,277.5 L690.9,277.5 L691.0,277.5 L691.1,277.5    L691.3,277.5 L691.4,277.5 L691.5,277.5 L691.6,277.5 L691.7,277.5 L691.9,277.5 L692.0,277.5 L692.1,277.5    L692.2,277.5 L692.3,277.5 L692.5,277.5 L692.6,277.5 L692.7,277.5 L692.8,277.5 L692.9,277.5 L693.0,277.5    L693.2,277.5 L693.3,277.5 L693.4,277.5 L693.5,277.5 L693.6,277.5 L693.8,277.5 L693.9,277.5 L694.0,277.5    "
         id="path154" />
    </g>
  </a>
  <a
     xlink:title="Plot #2"
     id="a156">
    <g
       style="fill:none; color:white; stroke:rgb(  0,   0,   0); stroke-width:4.00; stroke-linecap:butt; stroke-linejoin:miter"
       id="g158" />
    <g
       style="fill:none; color:green; stroke:currentColor; stroke-width:4.00; stroke-linecap:butt; stroke-linejoin:miter"
       id="g160">
      <path
         style="stroke:#0000ff;fill:none;stroke-width:3;stroke-miterlimit:4;stroke-dasharray:none"
         d="m 99.7,90.1 c 1.48705,1.450547 1.37374,3.991417 1.87027,5.962132 1.34036,9.090428 1.96241,18.281718 2.6129,27.451688 0.76913,10.78594 1.3767,21.58482 1.91683,32.38618 0.71827,12.4085 1.21977,24.83091 1.79435,37.24753 0.57323,12.61994 1.09881,25.24196 1.60309,37.86538 0.52436,13.02283 1.08459,26.04386 1.56862,39.06876 0.55293,12.77489 0.98387,25.55613 1.53138,38.33124 0.5503,12.96132 1.03087,25.92676 1.60256,38.88709 0.51871,11.93777 1.04343,23.87622 1.61294,35.81176 0.5508,11.36901 1.11046,22.73885 1.82798,34.09748 0.62573,11.43311 1.41932,22.85901 2.56042,34.24813 0.60548,4.43578 0.77201,9.03706 2.39866,13.24263 1.15044,0.68819 1.3847,-1.52035 1.65555,-2.27775 1.82123,-8.95737 2.20769,-18.13332 3.04445,-27.22225 0.78688,-11.27557 1.46282,-22.55932 2.03691,-33.84896 0.61481,-10.81045 1.07079,-21.6298 1.59344,-32.44555 0.62233,-14.48393 1.30764,-28.9643 1.82812,-43.45324 0.55227,-11.98647 0.96749,-23.97971 1.48871,-35.96773 0.52077,-13.74489 1.08735,-27.4875 1.60935,-41.2324 0.50422,-10.85211 0.87295,-21.71104 1.34437,-32.56479 0.56176,-13.374 1.16193,-26.74588 1.786,-40.11701 0.57104,-12.14231 1.17684,-24.28263 1.89765,-36.41586 0.6133,-10.70651 1.33904,-21.40521 2.30235,-32.08414 0.66049,-5.47968 0.88106,-11.109961 2.6131,-16.37032 0.95291,-1.388765 1.59941,1.038564 1.75555,1.877753 1.68073,8.072847 2.14866,16.353637 2.84985,24.565447 0.95881,12.53249 1.68547,25.08321 2.3069,37.63979 0.72403,12.35907 1.22093,24.73256 1.79818,37.10007 0.54094,11.6967 1.00196,23.39752 1.52594,35.09501 0.56418,15.35889 1.25514,30.71106 1.82011,46.06981 0.49957,11.2469 0.85097,22.50119 1.35652,33.74787 0.45718,10.75998 0.83915,21.52365 1.32337,32.28232 0.53452,13.31436 1.13973,26.62481 1.7722,39.93402 0.55415,12.20991 1.17169,24.41635 1.90412,36.6153 0.63946,11.32395 1.38576,22.64551 2.48039,33.93141 0.63766,5.00269 0.80708,10.16161 2.50687,14.9412 1.02631,1.11229 1.54584,-1.26808 1.7,-2.1 1.50067,-7.12637 2.02973,-14.43752 2.6,-21.7 0.93043,-10.68514 1.50048,-21.40174 2.13427,-32.10989 0.6673,-12.50401 1.31398,-25.00858 1.85263,-37.51979 0.62687,-13.63738 1.23959,-27.2758 1.77157,-40.91807 0.49768,-10.95233 0.86712,-21.91171 1.33897,-32.86516 0.48648,-11.15295 0.85274,-22.31218 1.33445,-33.46547 0.53961,-14.32496 1.17276,-28.64497 1.72865,-42.96922 0.48933,-10.41387 0.83086,-20.83557 1.36501,-31.24728 0.58481,-12.91318 1.16014,-25.82781 1.87703,-38.73348 0.6503,-11.88003 1.33272,-23.75902 2.25395,-35.61952 0.75049,-7.58658 1.10475,-15.266036 2.74867,-22.715114 0.13244,-0.771812 0.83362,-3.21611 1.6948,-1.737006 1.5878,4.140407 1.65487,8.717579 2.32352,13.08227 1.11548,11.34747 1.86556,22.73171 2.56135,34.11513 0.68976,12.73232 1.43156,25.46062 1.98045,38.20086 0.66995,13.30156 1.17014,26.6129 1.78523,39.9171 0.54132,13.37728 1.09564,26.75381 1.60598,40.13252 0.52064,11.24587 0.87328,22.50004 1.35652,33.74787 0.49106,12.9912 1.07004,25.97771 1.56504,38.96893 0.60379,13.20433 1.056,26.41781 1.7328,39.61836 0.51704,11.74532 1.04952,23.49098 1.71733,35.22741 0.52864,10.25025 1.16711,20.49483 1.87718,30.73275 0.66828,8.35127 1.207,16.73564 2.532,25.00639 0.47568,1.73574 0.33012,4.05902 1.7626,5.25041 1.2689,-1.05967 1.32224,-3.2391 1.68012,-4.86081 1.69007,-10.61645 2.24792,-21.37547 3.06702,-32.08764 0.77981,-12.04321 1.4606,-24.09289 2.02668,-36.14947 0.62636,-11.02049 1.02807,-22.05419 1.57265,-33.07943 0.60632,-14.78476 1.28637,-29.56533 1.8289,-44.35315 0.5361,-12.52186 1.01271,-25.04653 1.52463,-37.5695 0.53315,-13.27631 1.03539,-26.5544 1.57795,-39.83033 0.55963,-12.3931 0.98987,-24.79285 1.5726,-37.18503 0.49878,-11.94031 1.08537,-23.87636 1.64354,-35.81374 0.64233,-12.73376 1.35719,-25.46248 2.18908,-38.18472 0.70885,-9.90479 1.36671,-19.83318 2.79465,-29.658535 0.50812,-1.903824 0.41237,-4.318284 1.82218,-5.727645 1.4335,1.22899 1.40754,3.659095 1.8,5.5 1.58891,9.92076 2.07892,19.986 2.89427,29.9969 0.77118,11.9786 1.46296,23.96165 2.04111,35.95212 0.60792,11.2108 1.07243,22.43 1.59017,33.64586 0.59311,13.87832 1.20366,27.75504 1.7524,41.63545 0.4958,11.2415 0.84267,22.49083 1.37278,33.73068 0.56383,15.33624 1.21926,30.66806 1.78825,46.00415 0.52493,10.74537 0.87434,21.5 1.36192,32.24751 0.56275,13.00714 1.14942,26.01349 1.79319,39.01643 0.55116,11.54348 1.1701,23.08312 1.89487,34.61599 0.66933,10.68693 1.39724,21.37558 2.62214,32.01042 0.57618,3.32411 0.56113,6.94463 2.1889,9.94449 1.23458,0.31694 1.14682,-1.91574 1.6,-2.7 1.93102,-10.8174 2.49634,-21.81807 3.33327,-32.76553 0.77369,-11.68733 1.42464,-23.38364 2.00211,-35.08349 0.6032,-11.1779 1.07543,-22.36301 1.59017,-33.54586 0.60337,-13.93899 1.2025,-27.8777 1.77189,-41.81803 0.46975,-11.1483 0.83644,-22.30213 1.35329,-33.4481 0.41713,-10.87284 0.82445,-21.74655 1.28569,-32.61706 0.53453,-14.21951 1.16017,-28.4347 1.7443,-42.65206 0.51753,-11.85128 1.00431,-23.70364 1.59853,-35.55106 0.57281,-12.10923 1.16388,-24.2178 1.90562,-36.31621 0.72053,-12.00906 1.47823,-24.02081 2.7658,-35.98128 0.65439,-3.883138 0.60579,-8.040229 2.34933,-11.62132 1.2583,-0.302735 1.21474,1.951774 1.64657,2.779399 1.9205,10.779851 2.48291,21.743481 3.31628,32.651871 0.76064,11.37166 1.39334,22.7511 1.96073,34.13475 0.66786,13.00779 1.29181,26.01791 1.83708,39.03242 0.51559,12.13797 1.04343,24.27534 1.53678,36.41447 0.47256,11.14838 0.83755,22.30192 1.35329,33.4481 0.42832,10.87244 0.82017,21.7467 1.28569,32.61706 0.54787,14.31338 1.15426,28.62422 1.76448,42.9346 0.50451,12.43665 1.07809,24.86934 1.65571,37.30246 0.59206,11.8184 1.15829,23.63918 1.87316,35.45059 0.71806,11.35524 1.42354,22.71589 2.57023,34.03428 0.65926,4.27259 0.69501,8.76787 2.3,12.8 0.78619,1.6248 1.53687,-0.88063 1.7052,-1.66299 1.62606,-7.70161 2.07113,-15.61455 2.78901,-23.45014 0.89066,-12.23555 1.69021,-24.47672 2.2794,-36.73343 0.68399,-12.28969 1.25745,-24.58617 1.81009,-36.88336 0.56028,-12.34348 1.05583,-24.6903 1.59439,-37.03476 0.5461,-13.35457 1.06786,-26.71042 1.59728,-40.06582 0.52304,-12.34357 0.98137,-24.69043 1.50012,-37.03427 0.47414,-13.25265 1.07388,-26.49912 1.62541,-39.7479 0.49256,-11.9193 1.00648,-23.83709 1.58967,-35.75154 0.58025,-12.11366 1.1541,-24.22884 1.8943,-36.33319 0.48509,-8.14643 0.99898,-16.29346 1.66487,-24.42567 0.59955,-7.13288 1.10617,-14.31396 2.45546,-21.339924 0.392,-0.969047 0.37466,-3.149809 1.5948,-3.137006 1.69819,2.955602 1.61445,6.636673 2.22289,9.95302 1.33948,11.40642 2.03497,22.88383 2.77711,34.34698 0.77588,12.48086 1.42274,24.97063 1.99057,37.46421 0.61962,11.23189 1.01436,22.47706 1.5559,33.71314 0.58898,14.92439 1.28684,29.84289 1.81006,44.77053 0.55221,12.34223 0.97946,24.6905 1.5118,37.03371 0.51843,13.38936 1.06212,26.77723 1.59014,40.16616 0.58369,12.15856 0.984,24.32672 1.58508,36.48443 0.48063,11.02285 0.99538,22.04518 1.60368,33.06095 0.64566,13.86876 1.51685,27.72394 2.52764,41.56841 0.67956,7.38518 1.13444,14.819 2.5147,22.10718 0.4411,1.10735 0.30741,3.09234 1.61043,3.43128 1.51087,-2.48385 1.59596,-5.6334 2.03128,-8.48152 1.22769,-8.99891 1.80382,-18.08414 2.43157,-27.14975 0.86782,-12.35471 1.52697,-24.72529 2.13124,-37.09783 0.68797,-13.56941 1.33368,-27.14079 1.86645,-40.7185 0.55851,-11.96423 1.02493,-23.9332 1.52731,-35.90016 0.54807,-13.35995 1.05259,-26.72204 1.58752,-40.08274 0.49526,-11.11917 0.86375,-22.24499 1.34156,-33.36499 0.57781,-14.88571 1.25835,-29.76636 1.84584,-44.65195 0.5405,-11.53905 1.08345,-23.0775 1.63157,-34.61662 0.60335,-11.08452 1.1596,-22.17246 1.8801,-33.25025 0.73118,-10.26731 1.36673,-20.5542 2.69426,-30.760486 0.51389,-2.617686 0.56336,-5.453943 1.8313,-7.825204 1.20314,-0.587714 1.28265,1.777209 1.65555,2.577753 1.78143,9.486117 2.30127,19.159477 3.09746,28.770347 0.86346,13.30043 1.71813,26.59882 2.29607,39.91628 0.59313,10.59485 1.03969,21.19957 1.53479,31.80009 0.51496,12.71772 1.10555,25.43064 1.61357,38.14844 0.47738,10.92563 0.86228,21.85602 1.31949,32.78258 0.49953,13.21859 1.08586,26.43296 1.568,39.65237 0.48944,12.22227 0.99666,24.44392 1.51597,36.66481 0.54643,12.53434 1.07298,25.06961 1.65571,37.60246 0.61986,12.39539 1.22775,24.79122 1.92826,37.18227 0.79013,11.89454 1.4375,23.80817 2.71647,35.65997 0.60307,4.26552 0.72779,8.69984 2.29866,12.74263 1.059,1.14174 1.37656,-1.28738 1.7,-2 1.5518,-7.60082 2.05397,-15.37633 2.7,-23.1 0.88188,-10.76197 1.47848,-21.54722 2.10258,-32.32836 0.672,-12.73152 1.30913,-25.46458 1.88432,-38.20132 0.60573,-12.64211 1.10418,-25.29023 1.63262,-37.93649 0.56256,-12.98043 1.06809,-25.96374 1.57469,-38.94696 0.52716,-13.46265 1.10934,-26.92257 1.60579,-40.38687 0.49802,-12.19881 0.98037,-24.39862 1.52109,-36.5952 0.53474,-12.93073 1.11635,-25.85862 1.69023,-38.78783 0.68953,-13.02057 1.2685,-26.04883 2.07323,-39.06251 0.71239,-10.94656 1.37037,-21.90469 2.51679,-32.81183 C 424.23071,99.611914 424.32001,94.966942 426,90.8 c 1.24619,-0.705737 1.38506,1.716522 1.7,2.5 1.46411,7.11547 1.92133,14.41103 2.56054,21.6476 0.90551,11.00677 1.50771,22.03809 2.17373,33.06229 0.69025,12.66389 1.26909,25.33407 1.87435,38.0022 0.5833,12.70466 1.11163,25.41239 1.63043,38.12025 0.55906,12.79127 1.05838,25.58617 1.55516,38.38079 0.51297,12.74538 1.03169,25.4901 1.5341,38.23616 0.48118,11.98268 0.9844,23.96439 1.43235,35.94915 0.63701,12.31795 1.01896,24.64985 1.66198,36.96761 0.49276,11.29103 1.09149,22.57643 1.68478,33.86186 0.62771,11.76185 1.42979,23.50999 2.31276,35.25462 0.70566,6.65528 1.10576,13.38136 2.57982,19.91747 0.0961,1.09623 1.42011,2.74989 1.78957,0.83128 1.60708,-4.95828 1.77832,-10.27232 2.41043,-15.43128 1.12276,-11.54078 1.78915,-23.12441 2.5,-34.7 0.72931,-12.4224 1.32695,-24.85235 1.91089,-37.28304 0.58111,-12.00727 1.0895,-24.01821 1.59001,-36.02963 0.59449,-14.34446 1.21669,-28.6879 1.75563,-43.03521 0.5011,-11.24686 0.85873,-22.5009 1.35652,-33.74787 0.47389,-10.98692 0.82858,-21.98004 1.34286,-32.96491 0.54123,-14.45983 1.22115,-28.91236 1.83099,-43.36902 0.57031,-12.16783 1.14338,-24.33641 1.81568,-36.49868 0.60611,-11.59408 1.31459,-23.18138 2.21626,-34.75427 0.64954,-7.76923 1.19965,-15.57643 2.78116,-23.21737 0.17811,-0.923673 1.27137,-2.96478 1.78957,-1.031282 1.66423,5.133663 1.85045,10.635822 2.481,15.978102 1.11459,11.37977 1.78467,22.8027 2.45638,34.21905 0.73111,12.16589 1.30509,24.34232 1.88394,36.51717 0.57432,12.00714 1.09651,24.018 1.59001,36.02963 0.60128,14.31088 1.21634,28.62123 1.75563,42.93521 0.49678,11.15255 0.85654,22.31202 1.34091,33.46503 0.47958,10.98645 0.84276,21.9794 1.33898,32.96516 0.55234,14.49241 1.23727,28.97838 1.82875,43.46919 0.535,11.24596 1.08508,22.49053 1.64713,33.73573 0.65883,11.3833 1.22579,22.77513 2.12008,34.14226 0.61258,8.19508 1.17201,16.41958 2.52325,24.51946 0.39773,1.64843 0.32919,3.81131 1.64437,4.95529 1.28033,-0.65683 1.13759,-2.786 1.64657,-4.0794 1.70303,-10.82194 2.33938,-21.7827 3.16914,-32.70342 0.83686,-14.16316 1.73824,-28.32036 2.30688,-42.49953 0.6097,-10.92758 1.03552,-21.86624 1.54818,-32.79916 0.56676,-13.07606 1.0789,-26.15456 1.62344,-39.23162 0.48992,-11.08627 0.86084,-22.17846 1.33768,-33.26525 0.58249,-15.42441 1.26131,-30.84394 1.82658,-46.26937 0.5288,-11.58197 0.9531,-23.16981 1.50219,-34.75069 0.58399,-13.25234 1.14263,-26.50642 1.87625,-39.75052 0.56723,-11.85809 1.27071,-23.70725 2.06309,-35.55104 0.73869,-9.19917 1.25911,-18.43978 2.7374,-27.549592 0.42796,-1.748018 0.37956,-3.963642 1.6626,-5.250408 1.27734,0.614641 1.15367,2.703661 1.64657,3.979399 1.49983,9.054691 2.12156,18.233571 2.7867,27.386131 0.74481,9.74985 1.27236,19.51831 1.80532,29.28335 0.69186,12.25061 1.21311,24.51097 1.81584,36.76634 0.55808,12.73796 1.14346,25.47341 1.62352,38.21511 0.53013,12.01549 0.98052,24.03496 1.48811,36.05134 0.47691,13.65258 1.10045,27.29788 1.61189,40.94866 0.48919,10.85273 0.85934,21.71169 1.33898,32.56516 0.57415,14.15288 1.24292,28.30009 1.85083,42.45156 0.60005,12.14052 1.23072,24.27896 1.88861,36.41664 0.64695,10.20673 1.27525,20.41573 2.18708,30.60115 0.54186,5.68529 1.01407,11.43002 2.28322,16.98851 0.0189,0.98785 1.27186,3.15008 1.7629,1.17793 1.44304,-4.17567 1.66269,-8.72705 2.23395,-13.11355 1.19536,-12.07839 1.98576,-24.19378 2.66135,-36.31513 0.80944,-13.41465 1.49858,-26.83787 2.05858,-40.26744 0.59348,-11.50755 1.05035,-23.02297 1.55655,-34.53516 0.5031,-13.03942 1.08633,-26.07419 1.59421,-39.11313 0.52418,-13.12288 1.01286,-26.24738 1.57185,-39.36854 0.50284,-13.28995 1.1059,-26.57489 1.59241,-39.86608 0.53093,-11.61652 0.99792,-23.2363 1.54153,-34.85225 0.47357,-11.1018 1.0209,-22.19999 1.64723,-33.29313 0.61417,-12.0827 1.3416,-24.15687 2.24698,-36.22 0.74998,-7.89576 1.13242,-15.8935 2.83246,-23.640219 0.0939,-0.76835 0.93238,-3.174285 1.67333,-1.646651 1.44187,3.512722 1.52498,7.51182 2.15637,11.26369 1.0517,10.46786 1.82867,20.95942 2.46224,31.4631 0.6957,11.01122 1.23593,22.03266 1.84605,33.04913 0.58703,13.64762 1.2653,27.28922 1.83996,40.93648 0.52804,12.68381 1.04241,25.36877 1.57347,38.05228 0.53433,13.48862 1.10225,26.9753 1.59728,40.46582 0.52048,12.3994 0.99923,24.80105 1.52225,37.20035 0.4713,12.63037 1.05277,25.25534 1.607,37.88155 0.49288,11.70447 1.07331,23.40317 1.65434,35.10264 0.6748,11.94476 1.2737,23.89738 2.14644,35.82816 0.74589,9.57668 1.31977,19.19167 2.9946,28.6568 0.5237,0.9595 0.2921,2.92102 1.6,3.1 1.48079,-2.36911 1.47047,-5.39946 2,-8.1 1.2351,-9.7306 1.93255,-19.5237 2.57856,-29.31409 0.733,-10.77078 1.30148,-21.55285 1.85835,-32.33487 0.61788,-11.20493 1.03088,-22.42155 1.61516,-33.62797 0.60607,-14.55697 1.24216,-29.11211 1.8064,-43.67082 0.54493,-11.95879 0.95283,-23.92488 1.48058,-35.88459 0.48188,-13.96368 1.11305,-27.92008 1.65839,-41.88057 0.50064,-12.24055 0.96515,-24.48292 1.54449,-36.71933 0.4963,-12.10145 1.0927,-24.19826 1.65216,-36.29686 0.58893,-11.53549 1.19483,-23.07096 1.92452,-34.59769 0.67369,-10.12173 1.31426,-20.25623 2.49249,-30.32872 0.51632,-3.499506 0.68549,-7.204982 2.0889,-10.44449 1.09835,-0.968065 1.4325,1.436492 1.6,2.2 1.34897,5.718722 1.74474,11.6469 2.3,17.5 0.94214,10.59203 1.59765,21.2093 2.20742,31.82791 0.70859,12.2957 1.33073,24.59662 1.88293,36.90149 0.63001,13.37064 1.23587,26.74248 1.76812,40.11835 0.50441,10.94673 0.86628,21.90055 1.35458,32.848 0.46816,11.02631 0.84905,22.05646 1.31884,33.08263 0.57807,15.32451 1.26191,30.64387 1.82865,45.96922 0.53269,11.74409 1.00779,23.49155 1.55035,35.23544 0.53094,11.04271 0.98077,22.09111 1.61733,33.12741 0.64023,12.59339 1.3914,25.17961 2.30946,37.7548 0.7653,7.80999 1.14647,15.69746 2.66752,23.39774 0.39441,0.98665 0.32824,3.1713 1.5948,3.13701 1.45698,-2.47053 1.52481,-5.58857 2,-8.4 1.21381,-8.97178 1.77979,-18.03182 2.43142,-27.06563 0.78291,-11.87519 1.48883,-23.75808 2.02754,-35.64941 0.66939,-11.28713 1.04658,-22.59309 1.64104,-33.88496 0.54731,-13.47784 1.18293,-26.95025 1.67795,-40.43033 0.52922,-12.20996 0.9873,-24.42343 1.49754,-36.63444 0.47073,-13.49178 1.09268,-26.97558 1.59988,-40.46573 0.565,-12.68197 1.01544,-25.36979 1.59802,-38.05091 0.50242,-11.8509 1.0678,-23.69885 1.61696,-35.54799 0.57709,-11.57537 1.20685,-23.14705 1.89861,-34.71569 0.67662,-10.38379 1.38616,-20.76928 2.51238,-31.11228 0.56035,-3.731887 0.70621,-7.688036 2.19866,-11.14263 1.18069,-0.728234 1.35814,1.653222 1.7,2.4 1.90516,10.2032 2.40526,20.61211 3.2499,30.94829 0.78092,11.81067 1.47894,23.62771 2.0501,35.45171 0.72638,12.78184 1.23784,25.57621 1.82022,38.36615 0.56863,12.48004 1.07884,24.96306 1.57722,37.44676 0.52436,13.02283 1.08459,26.04386 1.56862,39.06876 0.49566,12.67782 1.01591,25.35443 1.53138,38.03124 0.53865,12.77761 1.03008,25.55819 1.59355,38.33474 0.50869,11.72855 1.05872,23.45471 1.6031,35.18145 0.5647,11.06831 1.1189,22.13856 1.82452,33.19769 0.65228,11.02553 1.40293,22.05218 2.59249,33.02872 0.55398,3.79909 0.71555,7.78232 2.1889,11.34449 1.15636,0.97397 1.3937,-1.49454 1.7,-2.2 1.90285,-9.87882 2.36724,-19.96744 3.21663,-29.98276 0.78088,-11.4485 1.45003,-22.90415 2.02028,-34.3662 0.62061,-11.03816 1.068,-22.08582 1.60956,-33.12839 0.61388,-14.55105 1.28806,-29.09871 1.83148,-43.65298 C 693.40984,313.11468 693.68728,305.65626 694,298.2"
         id="path162"
         inkscape:connector-curvature="0" />
    </g>
  </a>
  <g
     style="fill:none; color:white; stroke:rgb(  0,   0, 255); stroke-width:0.50; stroke-linecap:butt; stroke-linejoin:miter"
     id="g164" />
  <g
     style="fill:none; color:black; stroke:currentColor; stroke-width:0.50; stroke-linecap:butt; stroke-linejoin:miter"
     id="g166" />
</svg>
